<?xml version="1.0" encoding="UTF-8" standalone="no"?>
<svg
   version="1.1"
   height="297mm"
   width="210mm"
   id="svg1"
   sodipodi:docname="test.svg"
   xmlns:inkscape="http://www.inkscape.org/namespaces/inkscape"
   xmlns:sodipodi="http://sodipodi.sourceforge.net/DTD/sodipodi-0.dtd"
   xmlns="http://www.w3.org/2000/svg"
   xmlns:svg="http://www.w3.org/2000/svg">
  <defs
     id="defs1" />
  <sodipodi:namedview
     id="namedview1"
     pagecolor="#505050"
     bordercolor="#ffffff"
     borderopacity="1"
     inkscape:showpageshadow="0"
     inkscape:pageopacity="0"
     inkscape:pagecheckerboard="1"
     inkscape:deskcolor="#505050"
     inkscape:document-units="mm" />
  <path
     d="m 79.918112,63.401577 c 0.24567,0.0189 0.302363,0.0189 0.64252,0.05669 1.133858,0.151182 2.740158,0.24567 3.987402,0.24567 1.03937,0 1.700787,-0.05669 2.815748,-0.207874 -0.188976,0.09449 -0.226772,0.113386 -0.359055,0.188976 -0.245669,0.132284 -0.283465,0.151181 -0.491339,0.264567 -0.755905,0.434646 -1.096063,0.64252 -2.324409,1.455118 l 1.152756,0.925985 c 1.908661,-1.379528 3.666141,-2.456693 4.837795,-2.948032 l -0.09449,-1.511811 c -1.077166,0.264567 -2.588977,0.377953 -4.970079,0.377953 -2.154331,0 -3.836221,-0.151181 -5.064567,-0.453544 z m 11.262993,9.618897 c -1.096063,0.434646 -3.382677,0.737008 -5.707087,0.737008 -1.492913,0 -2.740157,-0.132283 -3.420472,-0.359055 -1.020473,-0.32126 -1.549607,-0.907086 -1.549607,-1.719685 0,-0.869291 0.548032,-1.719685 1.776378,-2.72126 l -1.152756,-0.888189 c -1.549606,1.341733 -2.248819,2.494488 -2.248819,3.779528 0,1.36063 0.755906,2.343307 2.229922,2.929134 0.963779,0.39685 2.570078,0.604724 4.47874,0.604724 1.606299,0 3.288189,-0.132283 5.083465,-0.434645 0.340157,-0.0378 0.415748,-0.05669 0.680315,-0.07559 z M 101.48032,60.396852 c -0.13229,0.661417 -0.52914,1.833071 -2.570081,7.294488 -2.702362,7.256694 -2.702362,7.256694 -2.966929,7.84252 l 1.738582,0.548032 c 0.226772,-1.114961 1.077166,-3.269292 1.700788,-4.327559 1.02047,-1.776378 2.19213,-2.759055 3.28819,-2.759055 0.51024,0 0.8315,0.207874 1.00157,0.680314 0.0945,0.32126 0.13229,0.661418 0.13229,1.6063 v 0.869291 c 0,1.020473 0.0567,1.644095 0.20787,2.059843 0.39685,1.096063 1.39843,1.700787 2.83465,1.700787 1.5685,0 2.94803,-0.737008 3.81732,-2.059842 0.62362,-0.925985 1.03937,-1.965355 1.37953,-3.477166 -0.77481,-0.453543 -0.98268,-0.604724 -1.47402,-1.096063 -0.0945,1.001575 -0.34016,1.927559 -0.71811,2.777953 -0.64252,1.530709 -1.5874,2.267717 -2.83464,2.267717 -0.64252,0 -1.13386,-0.207875 -1.36063,-0.56693 -0.22678,-0.340157 -0.28347,-0.755905 -0.28347,-1.833071 0,-2.116535 -0.0189,-2.437795 -0.20787,-3.023622 -0.28347,-0.850393 -1.13386,-1.455118 -2.07874,-1.455118 -0.92599,0 -1.6441,0.32126 -2.4,1.03937 -0.30237,0.283465 -0.49134,0.510237 -0.963783,1.152756 l -0.07559,-0.0378 c 1.001573,-2.07874 1.152753,-2.456693 2.740153,-6.557481 0.58583,-1.511811 0.66142,-1.700787 0.92599,-2.173228 z m 15.9874,12.718111 c 0,-0.32126 -0.0189,-0.396851 -0.0189,-0.812599 -0.0189,-0.510236 -0.0378,-1.417323 -0.0378,-1.795275 0,-2.154331 0.15118,-4.119686 0.43464,-5.782678 0.26457,-1.474016 0.60473,-2.872441 0.94488,-3.76063 l -1.79527,-0.245669 c -0.0378,0.472441 -0.0756,0.661417 -0.26457,1.606299 -0.60472,2.796851 -0.83149,4.837796 -0.83149,7.483465 0,1.908661 0.13228,3.307087 0.49133,5.385827 0.0567,0.377953 0.0756,0.491338 0.11339,0.793701 l 1.64409,-0.113386 c -0.0189,-0.151181 -0.0189,-0.283465 -0.0189,-0.359055 0,-1.152756 0.64252,-3.325985 1.5874,-5.329134 l -1.13386,-0.529134 c -0.60472,1.492913 -0.90709,2.4 -1.09606,3.458268 z m 3.57165,-8.636221 c 0.15118,0.0189 0.18898,0.0189 0.30237,0.0378 0.28346,0.0378 0.28346,0.0378 0.34015,0.0378 0.96378,0.09449 1.56851,0.132283 2.53229,0.132283 1.39842,0 2.87244,-0.09449 4.02519,-0.245669 0.8126,-0.113386 1.24725,-0.170079 1.30394,-0.170079 l -0.0945,-1.606299 c -1.15275,0.32126 -2.96693,0.510236 -5.17795,0.510236 -1.45512,0 -2.32441,-0.07559 -3.1937,-0.283465 z M 122.4,68.0126 c -1.17165,1.36063 -1.68189,2.456693 -1.68189,3.571654 0,0.680315 0.20788,1.341732 0.56693,1.814173 0.7937,1.020473 2.21103,1.492914 4.44095,1.492914 1.26614,0 2.53228,-0.113386 3.89291,-0.359055 0.39685,-0.07559 0.43465,-0.07559 0.68032,-0.113386 l -0.17008,-1.719685 c -1.07717,0.415748 -2.70236,0.661417 -4.40315,0.661417 -2.28662,0 -3.45827,-0.64252 -3.45827,-1.927559 0,-0.831496 0.43465,-1.700788 1.41732,-2.777953 z m 12.0378,-3.269291 c 0.0567,0 0.11339,0 0.15118,0 0.11339,0 0.30236,0 0.54803,0.0189 1.03937,0.07559 2.07874,0.113385 3.06142,0.132283 -0.30236,1.03937 -0.94488,2.777953 -1.53071,4.15748 -0.34016,0.812599 -0.62362,1.36063 -0.98267,1.92756 l 1.62519,0.623622 c 0.35906,-0.491339 0.77481,-0.793701 1.51181,-1.171654 1.26614,-0.604724 2.85355,-0.982677 4.28977,-0.982677 2.19212,0 3.49606,0.793701 3.49606,2.173228 0,1.700788 -1.90866,2.834646 -4.8189,2.834646 -1.66299,0 -3.23149,-0.302362 -4.7622,-0.944882 0.0945,0.699213 0.11338,1.03937 0.11338,1.398425 0,0.113386 0,0.170079 0,0.32126 1.45512,0.472441 3.04252,0.71811 4.72441,0.71811 3.89292,0 6.4441,-1.719685 6.4441,-4.346456 0,-2.154331 -1.92756,-3.571654 -4.89449,-3.571654 -2.13543,0 -4.11969,0.548031 -5.40473,1.492913 l -0.0189,-0.0189 c 0.62362,-1.133859 1.17165,-2.513386 1.79527,-4.611024 2.13544,-0.05669 4.27087,-0.207874 5.80158,-0.377953 1.64409,-0.207874 1.64409,-0.207874 2.04094,-0.226771 l -0.0945,-1.644095 c -1.22834,0.415748 -3.77952,0.680315 -7.37007,0.812598 0.18897,-0.755905 0.20787,-0.7937 0.47244,-1.946456 0.20787,-0.888189 0.20787,-0.888189 0.30236,-1.171654 l -1.79528,-0.170079 c -0.0378,0.831496 -0.20787,1.814174 -0.58582,3.307087 -2.05985,0 -3.1937,-0.09449 -4.08189,-0.302362 z m 23.77323,1.190551 c 0.0378,-0.0189 0.0567,-0.0189 0.0756,-0.0189 0.0378,0 0.0945,0 0.18897,0.0189 0.0378,0 0.15119,0 0.34016,0.0189 0.0567,0 0.26457,0.0189 0.56693,0.0378 0.68032,0.05669 1.37953,0.07559 2.13543,0.07559 0.69922,0 1.17166,-0.0189 2.07874,-0.05669 0.0945,3.061417 0.13229,4.251968 0.18898,4.667716 -0.49134,-0.207874 -1.20945,-0.340157 -1.96535,-0.340157 -2.15433,0 -3.68504,1.171653 -3.68504,2.815748 0,1.719685 1.39842,2.79685 3.64724,2.79685 1.6252,0 2.85355,-0.585826 3.30709,-1.587401 0.15118,-0.340158 0.22677,-0.755906 0.22677,-1.303937 0,-0.151181 0,-0.226772 -0.0189,-0.396851 0.0945,0.05669 0.0945,0.07559 0.17008,0.113386 0.15118,0.09449 0.18898,0.113386 0.20788,0.132284 1.36063,0.831496 1.37952,0.850393 1.96535,1.341732 0.24567,0.207874 0.37795,0.340157 0.56693,0.548031 l 0.68031,-1.606299 c -0.22677,-0.113386 -0.28346,-0.151181 -0.49133,-0.32126 -1.17166,-0.850393 -1.77638,-1.209448 -3.09922,-1.814173 -0.18897,-3.193701 -0.18897,-3.420472 -0.20787,-5.159055 1.15275,-0.132284 1.98425,-0.264567 2.98583,-0.491339 0.15118,-0.0378 0.18897,-0.0378 0.30236,-0.05669 l -0.0756,-1.511811 c -0.54803,0.24567 -1.81418,0.510236 -3.2126,0.680315 0,-0.472441 0,-0.812598 0,-1.058268 0,-1.417322 0.0378,-2.286614 0.11338,-2.759055 h -1.68189 c 0.0189,0.188977 0.0378,0.472441 0.0378,0.812599 0.0189,1.303937 0.0189,1.303937 0.0189,3.11811 -0.62362,0.0189 -1.05827,0.03779 -1.79528,0.03779 -1.75748,0 -2.60787,-0.07559 -3.55275,-0.283464 z m 5.6126,6.141733 c 0,0.0189 0,0.434645 0,0.548031 0,0.64252 -0.11339,1.058268 -0.32126,1.322835 -0.34016,0.377953 -1.02048,0.623622 -1.79528,0.623622 -1.22835,0 -2.05984,-0.566929 -2.05984,-1.417323 0,-0.888189 0.88819,-1.455118 2.24882,-1.455118 0.69921,0 1.17165,0.09449 1.92756,0.377953 z m -8.71181,1.020472 c 0,-0.226772 0,-0.264567 0,-0.453543 0,-0.302363 0,-0.302363 -0.0189,-0.472441 -0.0189,-0.869292 -0.0378,-1.795276 -0.0378,-2.229922 0,-3.099212 0.66142,-7.2 1.47402,-9.033071 l -1.79528,-0.245669 c 0,0.264567 -0.0378,0.510236 -0.20787,1.266142 -0.71811,3.325984 -0.94488,5.19685 -0.94488,7.748031 0,1.984253 0.15118,3.666142 0.52913,5.744883 0.0945,0.529133 0.0945,0.566929 0.0945,0.699212 l 1.64409,-0.132283 c -0.0378,-0.226772 -0.0378,-0.32126 -0.0378,-0.415748 0,-1.152756 0.8126,-3.722835 1.70079,-5.480315 l -1.19056,-0.529134 c -0.0567,0.170078 -0.0756,0.226771 -0.17007,0.453543 -0.51024,1.322835 -0.64252,1.719685 -0.98268,3.099213 z m 25.22834,-1.133858 c -0.0378,-0.415748 -0.0567,-0.831496 -0.0567,-1.058268 0,-0.07559 0,-0.151181 0,-0.283465 0.0189,-0.188976 0.0189,-0.415748 0.0378,-0.71811 l 0.18898,-6.633071 c 0.0189,-0.774803 0.0567,-1.417323 0.13228,-2.135433 h -2.21102 c 0.0756,0.699213 0.11338,1.322835 0.13228,2.135433 l 0.18898,6.633071 c 0,0.755906 0,0.755906 0,0.96378 0,0.434645 0,0.623622 -0.0378,1.096063 z m 0.24567,3.722834 v -2.003149 h -2.07874 v 2.003149 z m 14.36221,-8.768504 c -0.0567,2.777953 -0.28346,4.119685 -0.90709,5.36693 -0.737,1.43622 -1.92756,2.437795 -4.15748,3.477165 0.43465,0.359055 0.75591,0.755906 1.09607,1.322835 0.90708,-0.510237 1.32283,-0.755906 1.79527,-1.096063 1.05827,-0.755906 1.83307,-1.6063 2.4189,-2.64567 0.86929,-1.587401 1.20945,-3.288189 1.28504,-6.425197 h 3.25039 v 8.031497 c 0,0.642519 0.0945,0.944881 0.39685,1.171653 0.41575,0.302362 1.19055,0.434646 2.60788,0.434646 3.74173,0 3.87401,-0.132284 4.27086,-4.289764 -0.54803,-0.113386 -0.90708,-0.245669 -1.45511,-0.548032 -0.0756,1.455119 -0.18898,2.418898 -0.34016,2.815749 -0.18898,0.491338 -0.58583,0.604724 -2.24882,0.604724 -1.45512,0 -1.71969,-0.09449 -1.71969,-0.623622 v -7.596851 h 3.51497 c 0.81259,0 1.41732,0.0378 2.00314,0.113386 v -1.625197 c -0.58582,0.07559 -1.13385,0.113386 -2.00314,0.113386 H 192.0567 c -0.85039,0 -1.39842,-0.0378 -1.98425,-0.113386 v 1.625197 c 0.56693,-0.07559 1.17165,-0.113386 1.98425,-0.113386 z m 10.07244,-6.085039 c -0.45354,0.07559 -0.98268,0.113386 -1.92756,0.113386 h -9.25984 c -0.90709,0 -1.47402,-0.0378 -1.90866,-0.113386 v 1.662992 c 0.47244,-0.07559 1.02047,-0.113386 1.88976,-0.113386 h 9.31654 c 0.83149,0 1.41732,0.0378 1.88976,0.113386 z m 17.5559,1.870866 c 1.19055,0 1.96535,0.03779 2.3622,0.132283 v -1.568504 c -0.64252,0.09449 -1.28504,0.132284 -2.3622,0.132284 h -9.18425 c 0.20787,-0.377953 0.30236,-0.585827 0.49133,-0.96378 0.17008,-0.359055 0.20788,-0.415748 0.32126,-0.642519 l -1.5685,-0.302363 c -0.0567,0.359056 -0.15118,0.661418 -0.37795,1.133859 -0.86929,1.833071 -1.94646,3.231496 -3.57166,4.629921 0.56693,0.359055 0.8693,0.64252 1.03937,1.001575 1.22835,-1.133858 2.04095,-2.097638 2.92914,-3.552756 z m -1.88977,12.434646 c -1.26614,-1.152756 -2.09763,-1.851969 -3.62834,-3.004725 0.64252,-0.699212 1.02047,-1.152755 1.53071,-1.851968 0.45354,-0.623622 0.45354,-0.623622 0.7559,-1.001575 l -1.45512,-0.774803 c -0.24567,0.737008 -0.90708,1.700787 -1.94645,2.79685 -1.39843,-0.963779 -2.07874,-1.398425 -3.55276,-2.248819 l -0.98268,0.907087 c 1.663,0.982677 2.4378,1.474016 3.55276,2.305512 -1.54961,1.36063 -3.00472,2.211024 -5.70709,3.307087 0.54803,0.472441 0.73701,0.699212 1.05827,1.266141 2.75906,-1.341732 4.10079,-2.211023 5.76378,-3.741732 1.70079,1.341732 2.4189,2.00315 3.57165,3.212599 z m 0.73701,-7.011024 c 0.0378,3.004725 0.24567,4.72441 0.75591,6.16063 0.52913,1.492914 1.45512,2.570079 2.22992,2.570079 0.92598,0 1.45512,-1.190551 1.75748,-3.892913 -0.47244,-0.207874 -0.7748,-0.434646 -1.20945,-0.869292 -0.0945,1.587402 -0.39685,3.04252 -0.62362,3.04252 -0.20788,0 -0.60473,-0.680315 -0.86929,-1.436221 -0.41575,-1.266141 -0.64252,-3.080315 -0.64252,-5.291338 0,-0.64252 0.0189,-1.077166 0.0756,-1.644095 -0.54803,0.05669 -0.98268,0.07559 -2.15433,0.07559 h -9.20315 c -0.77481,0 -1.26614,-0.0378 -1.71969,-0.09449 v 1.492913 c 0.56693,-0.07559 1.11496,-0.113386 2.00315,-0.113386 z m -9.22205,-2.645669 c 0.47245,-0.07559 0.98268,-0.09449 1.77638,-0.09449 h 7.52126 c 0.88819,0 1.39843,0.0189 1.88977,0.09449 v -1.455118 c -0.39685,0.05669 -0.96378,0.09449 -1.88977,0.09449 h -7.72913 c -0.71811,0 -1.26614,-0.0189 -1.56851,-0.07559 z m 16.27088,-0.831496 c 1.00157,-0.207874 2.55118,-0.359055 6.21732,-0.604725 2.04095,-0.132283 2.94803,-0.226771 4.15748,-0.415748 -3.1937,1.436221 -5.06457,3.892914 -5.06457,6.651969 0,1.700787 0.7937,3.137008 2.24882,4.08189 1.11496,0.699212 2.22992,1.077165 4.17638,1.398425 0.30236,0.0378 0.37795,0.05669 0.60473,0.113386 l 0.26456,-1.833071 c -0.90708,0 -1.88976,-0.170079 -2.83464,-0.491339 -1.88977,-0.623622 -2.85355,-1.75748 -2.85355,-3.420472 0,-1.776378 1.07717,-3.514961 3.00473,-4.818898 1.49291,-1.001575 3.28819,-1.606299 4.8189,-1.606299 h 0.22677 l -0.13229,-1.68189 c -0.30236,0.07559 -1.05826,0.151181 -2.21102,0.188976 -3.11811,0.132284 -8.29606,0.434646 -10.94173,0.623622 -0.58583,0.0378 -0.8315,0.05669 -1.09607,0.05669 l -0.68031,-0.0189 z m 11.60315,1.776378 c 0.7748,0.869291 1.37952,1.814173 1.96535,2.985827 l 1.11496,-0.623623 c -0.66142,-1.228346 -1.09606,-1.870866 -1.98425,-2.929133 z m 2.19212,-1.020473 c 0.8315,0.982677 1.39843,1.833071 1.94646,2.929134 l 1.09606,-0.623622 c -0.68031,-1.247244 -1.09606,-1.833071 -1.98425,-2.872441 z m 13.75749,-2.588976 c -2.11654,0.05669 -2.94803,0.07559 -4.55433,0.132283 -2.85354,0.113386 -2.96693,0.113386 -3.47717,0.113386 -0.28346,0 -0.43464,0 -0.8126,-0.0189 l 0.0567,1.625197 c 1.17165,-0.188976 5.5748,-0.434645 8.8063,-0.491338 0,1.03937 0.0189,2.022047 0.0378,2.192126 v 0.132283 c -0.47244,-0.491338 -1.20945,-0.755905 -2.09764,-0.755905 -2.02204,0 -3.49606,1.36063 -3.49606,3.212598 0,1.776378 1.36063,3.080315 3.2126,3.080315 0.98268,0 1.81417,-0.340157 2.3811,-0.982677 0.20788,-0.226772 0.32126,-0.434646 0.51024,-0.831496 -0.0567,0.755906 -0.20788,1.303937 -0.54803,1.908661 -0.8126,1.474016 -2.26772,2.400001 -4.70551,3.061418 0.45354,0.491338 0.58582,0.699212 0.96377,1.455118 1.53071,-0.566929 2.32441,-0.96378 3.11812,-1.530709 1.71968,-1.266141 2.58897,-2.948031 2.58897,-4.988976 0,-0.907087 -0.13228,-1.530709 -0.47244,-2.343307 0,-2.513386 0,-2.513386 0,-3.628347 1.51181,-0.0189 1.83307,-0.0189 2.09764,-0.0189 2.07874,0 2.75905,0.0189 3.47716,0.09449 v -1.587402 c -0.62362,0.07559 -2.05984,0.113386 -5.5937,0.132284 0,-1.6063 0.0189,-1.889764 0.0945,-2.475591 h -1.70079 c 0.0567,0.39685 0.0756,0.585827 0.0945,1.096063 z m -1.90866,4.195275 c 0.58583,0 1.11496,0.188977 1.49291,0.548032 0.26457,0.264567 0.37795,0.548032 0.37795,1.001575 0,1.228346 -0.86929,2.07874 -2.09763,2.07874 -1.09607,0 -1.85197,-0.737008 -1.85197,-1.795276 0,-1.03937 0.88819,-1.833071 2.07874,-1.833071 z m 9.37321,5.725985 c 1.49291,1.209449 2.55118,2.343307 3.83622,4.176378 l 1.28504,-1.228347 c -1.34173,-1.75748 -2.32441,-2.759055 -3.93071,-4.044094 z m 20.59843,-8.636221 c 0.15118,-0.0189 0.26457,-0.0189 0.34016,-0.0189 0.0378,0 0.17008,0 0.34016,0.0189 1.53071,0.05669 2.4,0.07559 2.60787,0.07559 H 288 c -0.0756,1.322834 -0.0756,1.322834 -0.0945,2.683464 -2.75906,1.209449 -4.40315,3.344882 -4.40315,5.744882 0,1.738583 1.05826,2.985827 2.55118,2.985827 1.36063,0 2.77795,-0.737008 4.27086,-2.229921 1.53071,-1.511811 2.58898,-3.174803 3.68504,-5.669292 1.85197,0.510237 2.85355,1.587402 2.85355,3.099213 0,1.606299 -1.17166,2.929134 -3.2126,3.647244 -0.90709,0.302363 -1.68189,0.434646 -2.81575,0.472441 0.41575,0.623622 0.52913,0.888189 0.71811,1.511811 1.68189,-0.188976 2.75905,-0.491338 3.87402,-1.058267 2.00314,-1.020473 3.04251,-2.551182 3.04251,-4.478741 0,-2.192126 -1.49291,-3.855118 -4.00629,-4.440945 0.35905,-0.888189 0.54803,-1.36063 0.58582,-1.43622 l -1.5496,-0.453543 c -0.0756,0.510236 -0.20788,1.03937 -0.43465,1.625196 -0.47244,-0.0378 -0.69921,-0.05669 -1.05827,-0.05669 -0.94488,0 -1.68189,0.09449 -2.66456,0.340158 0,-0.737008 0.0189,-0.888189 0.11338,-2.32441 1.75748,-0.05669 4.55433,-0.359055 6.68977,-0.71811 0.34015,-0.05669 0.41574,-0.07559 0.68031,-0.09449 l -0.0945,-1.568504 c -1.43622,0.491339 -4.13858,0.888189 -7.1811,1.03937 0.13228,-1.417323 0.20787,-2.040945 0.37795,-2.551181 l -1.71968,-0.113386 c 0.0189,0.151181 0.0378,0.245669 0.0378,0.302362 0,0.170079 -0.0378,0.850394 -0.0567,1.077166 -0.0756,0.925984 -0.0756,0.925984 -0.11339,1.341732 -0.32126,0 -0.39685,0 -0.45354,0 -1.68189,0 -2.70236,-0.07559 -3.51496,-0.283465 z m 3.83622,4.233071 c 0,2.116536 0.11339,3.514961 0.35906,4.875591 -0.77481,0.64252 -1.37953,0.907086 -2.02205,0.907086 -0.7748,0 -1.28504,-0.642519 -1.28504,-1.625196 0,-0.907087 0.37795,-1.833071 1.07717,-2.664567 0.49134,-0.585827 0.98267,-0.982678 1.87086,-1.492914 z m 1.6063,3.930709 c 0,-0.05669 0,-0.07559 0,-0.113386 0,-0.07559 -0.0189,-0.245669 -0.0378,-0.434646 -0.13229,-1.341732 -0.15118,-1.587401 -0.18898,-3.892913 0.7748,-0.283465 1.66299,-0.434646 2.49449,-0.434646 0.37795,0 0.47244,0 0.8126,0.0378 -0.75591,1.75748 -1.41733,2.834645 -2.58898,4.251968 -0.32126,0.396851 -0.32126,0.396851 -0.45354,0.585827 z m 16.47875,-5.423622 c 0.0567,-0.661418 0.0945,-1.077166 0.26457,-2.267717 0.47244,-3.307087 0.52913,-3.571654 0.7559,-4.233071 l -1.73858,-0.132283 c 0,0.226771 0,0.32126 -0.0378,0.604724 -0.49134,3.477166 -0.62362,5.083465 -0.62362,6.992126 0,0.226772 0.0378,2.248819 0.0378,2.437796 0.0189,0.188976 0.0189,0.302362 0.0189,0.359055 0,0.03779 0,0.113386 -0.0189,0.207874 l 1.62519,-0.0378 c 0,-0.24567 0,-0.359056 0,-0.453544 0,-1.417323 0.34016,-2.834646 1.03937,-4.214173 1.03937,-2.097638 2.24882,-3.155906 3.59055,-3.155906 1.77638,0 2.79685,1.68189 2.79685,4.629922 0,2.985826 -1.02047,4.913386 -3.23149,6.141732 -1.13386,0.623622 -2.11654,0.907087 -3.93071,1.152756 0.43465,0.566929 0.56693,0.793701 0.85039,1.549606 1.37953,-0.283464 2.53229,-0.661417 3.45827,-1.096063 2.94803,-1.417323 4.51654,-4.044094 4.51654,-7.52126 0,-2.097638 -0.35906,-3.51496 -1.19055,-4.724409 -0.77481,-1.114961 -1.83308,-1.68189 -3.11811,-1.68189 -1.43623,0 -2.68347,0.774803 -3.72284,2.286614 -0.52913,0.793701 -0.88819,1.625197 -1.13386,2.64567 -0.0945,0.377952 -0.0945,0.377952 -0.13228,0.510236 z m 14.92912,-0.113386 c 0.8315,-0.207874 1.6252,-0.359055 3.66614,-0.661417 -0.60472,2.418897 -1.13385,3.949606 -2.00314,5.820472 -0.64252,1.398425 -1.39843,2.740158 -1.96536,3.458268 l 1.54961,0.888189 1.22834,-2.381102 c 1.24725,-2.570079 2.05985,-4.856693 2.77796,-7.918111 0.54803,-0.05669 0.88819,-0.07559 1.28504,-0.07559 1.68189,0 2.21102,0.604724 2.21102,2.532283 0,2.116536 -0.28347,4.025197 -0.7748,5.177953 -0.22678,0.548031 -0.58583,0.831496 -1.03937,0.831496 -0.66142,0 -1.73859,-0.32126 -2.77796,-0.831496 0.0756,0.453543 0.0945,0.699213 0.0945,1.03937 0,0.226772 -0.0189,0.340158 -0.0378,0.661417 1.22834,0.491339 2.05984,0.680315 2.85354,0.680315 0.90709,0 1.45512,-0.226771 1.92756,-0.869291 0.8126,-1.077165 1.32283,-3.609449 1.32283,-6.614173 0,-1.6063 -0.26456,-2.475591 -0.90708,-3.137008 -0.60473,-0.585827 -1.43622,-0.831496 -2.72126,-0.831496 -0.41575,0 -0.69922,0 -1.15276,0.0378 0.0945,-0.434646 0.30236,-1.644095 0.39685,-2.135433 0.17008,-1.058268 0.22677,-1.379528 0.34016,-1.757481 l -1.77638,-0.207874 v 0.264567 c 0,0.774803 -0.22677,2.418898 -0.52913,3.968504 -1.5874,0.24567 -3.47717,0.453544 -4.15748,0.453544 z m 11.01733,-2.645669 c 1.77637,1.851968 3.09921,4.270866 3.79842,6.992126 l 1.47402,-0.812599 c -0.8504,-2.72126 -2.02205,-4.781102 -3.93071,-6.87874 z m 3.23149,-4.308662 c 0.8315,0.982677 1.39843,1.833071 1.94646,2.929134 l 1.09606,-0.623622 c -0.68031,-1.247244 -1.09606,-1.833071 -1.98425,-2.872441 z m -2.19212,1.020472 c 0.7748,0.869292 1.37952,1.814174 1.96535,2.985827 l 1.11496,-0.623622 c -0.66142,-1.228346 -1.09606,-1.870866 -1.98425,-2.929134 z m 11.0929,-0.132283 c 0.11339,0.302362 0.13228,0.39685 0.30236,1.209449 0.45355,2.248819 0.8315,3.703937 1.34173,5.234646 -1.17165,0.585826 -1.77637,0.963779 -2.49448,1.568504 -1.07717,0.888189 -1.68189,2.040945 -1.68189,3.193701 0,1.285039 0.56693,2.343307 1.5874,2.929133 1.13386,0.64252 2.62677,0.907087 5.06457,0.907087 1.37952,0 2.3433,-0.05669 4.30866,-0.264567 1.03937,-0.113386 1.03937,-0.113386 1.43622,-0.113386 l -0.17008,-1.870866 c -1.20945,0.415748 -3.38268,0.680315 -5.55591,0.680315 -1.28504,0 -2.51338,-0.113386 -3.1559,-0.283464 -1.20945,-0.32126 -1.81418,-0.96378 -1.81418,-1.946457 0,-0.737008 0.35906,-1.455118 0.98268,-2.022047 0.8126,-0.699213 2.02205,-1.379528 3.49606,-1.946457 2.11654,-0.812599 4.44095,-1.549607 5.85827,-1.851969 l -0.64252,-1.700787 c -0.34015,0.188976 -0.41575,0.207874 -1.24724,0.510236 -3.32599,1.133858 -3.32599,1.133858 -4.47874,1.606299 -0.64252,-1.908661 -1.30394,-4.856693 -1.37953,-6.16063 z m 18.16064,1.436221 c 2.58897,0.699212 5.00787,1.058267 8.20157,1.228346 l 0.24567,-1.625197 c -2.04094,-0.0189 -3.42047,-0.151181 -5.23464,-0.472441 -1.17166,-0.207874 -1.77638,-0.359055 -2.66457,-0.680315 z m -1.87087,6.179527 c 1.5685,-0.623622 5.27244,-1.266142 7.42677,-1.266142 2.09764,0 3.2504,0.850394 3.2504,2.400001 0,1.492913 -0.90709,2.834645 -2.51339,3.76063 -1.53071,0.869291 -3.40157,1.379527 -5.44252,1.511811 0.37795,0.585826 0.49134,0.869291 0.71811,1.644094 2.83465,-0.491338 4.19528,-0.925984 5.6315,-1.75748 2.11653,-1.209449 3.34488,-3.155906 3.34488,-5.253544 0,-1.322834 -0.60473,-2.437795 -1.68189,-3.099212 -0.75591,-0.472441 -1.92756,-0.737008 -3.30709,-0.737008 -1.5496,0 -3.1937,0.188976 -5.85827,0.680315 -1.5307,0.283464 -1.5307,0.283464 -1.98425,0.32126 z m 19.59686,2.740158 c -1.6252,0 -2.94803,1.322834 -2.94803,2.929134 0,1.625197 1.32283,2.948031 2.94803,2.948031 1.62519,0 2.92913,-1.303937 2.92913,-2.948031 0,-1.625197 -1.30394,-2.929134 -2.92913,-2.929134 z m 0,1.209449 c 0.94488,0 1.70078,0.774803 1.70078,1.719685 0,0.944882 -0.7748,1.719685 -1.70078,1.719685 -0.94488,0 -1.71969,-0.774803 -1.71969,-1.719685 0,-0.944882 0.77481,-1.719685 1.71969,-1.719685 z m 17.49922,-8.125985 c 0.15118,-0.0189 0.26456,-0.0189 0.34015,-0.0189 0.0378,0 0.17008,0 0.34016,0.0189 1.53071,0.05669 2.4,0.07559 2.60787,0.07559 h 0.62363 c -0.0756,1.322834 -0.0756,1.322834 -0.0945,2.683464 -2.75906,1.209449 -4.40315,3.344882 -4.40315,5.744882 0,1.738583 1.05827,2.985827 2.55118,2.985827 1.36063,0 2.77795,-0.737008 4.27087,-2.229921 1.53071,-1.511811 2.58897,-3.174803 3.68504,-5.669292 1.85196,0.510237 2.85354,1.587402 2.85354,3.099213 0,1.606299 -1.17165,2.929134 -3.2126,3.647244 -0.90709,0.302363 -1.68189,0.434646 -2.81575,0.472441 0.41575,0.623622 0.52914,0.888189 0.71811,1.511811 1.68189,-0.188976 2.75906,-0.491338 3.87402,-1.058267 2.00315,-1.020473 3.04252,-2.551182 3.04252,-4.478741 0,-2.192126 -1.49291,-3.855118 -4.0063,-4.440945 0.35905,-0.888189 0.54803,-1.36063 0.58583,-1.43622 l -1.54961,-0.453543 c -0.0756,0.510236 -0.20787,1.03937 -0.43465,1.625196 -0.47244,-0.0378 -0.69921,-0.05669 -1.05826,-0.05669 -0.94489,0 -1.68189,0.09449 -2.66457,0.340158 0,-0.737008 0.0189,-0.888189 0.11339,-2.32441 1.75748,-0.05669 4.55433,-0.359055 6.68976,-0.71811 0.34016,-0.05669 0.41575,-0.07559 0.68031,-0.09449 l -0.0945,-1.568504 c -1.43622,0.491339 -4.13859,0.888189 -7.18111,1.03937 0.13229,-1.417323 0.20788,-2.040945 0.37796,-2.551181 l -1.71969,-0.113386 c 0.0189,0.151181 0.0378,0.245669 0.0378,0.302362 0,0.170079 -0.0378,0.850394 -0.0567,1.077166 -0.0756,0.925984 -0.0756,0.925984 -0.11338,1.341732 -0.32126,0 -0.39685,0 -0.45355,0 -1.68189,0 -2.70236,-0.07559 -3.51496,-0.283465 z m 3.83622,4.233071 c 0,2.116536 0.11338,3.514961 0.35905,4.875591 -0.7748,0.64252 -1.37953,0.907086 -2.02205,0.907086 -0.7748,0 -1.28504,-0.642519 -1.28504,-1.625196 0,-0.907087 0.37796,-1.833071 1.07717,-2.664567 0.49134,-0.585827 0.98268,-0.982678 1.87087,-1.492914 z m 1.6063,3.930709 c 0,-0.05669 0,-0.07559 0,-0.113386 0,-0.07559 -0.0189,-0.245669 -0.0378,-0.434646 -0.13228,-1.341732 -0.15118,-1.587401 -0.18898,-3.892913 0.77481,-0.283465 1.663,-0.434646 2.49449,-0.434646 0.37796,0 0.47244,0 0.8126,0.0378 -0.7559,1.75748 -1.41732,2.834645 -2.58898,4.251968 -0.32126,0.396851 -0.32126,0.396851 -0.45354,0.585827 z m 17.06457,-12.113386 c -0.0567,0.850393 -0.30236,2.286614 -0.62362,3.477165 -0.30237,0.0189 -0.7937,0.0189 -1.30394,0.0189 -1.05827,0 -1.6252,-0.0378 -2.28661,-0.151181 v 1.549606 c 0.0945,0 0.17007,0 0.20787,0 0.11339,0 0.26457,0 0.45354,0 0.56693,0.0189 0.71811,0.0189 1.17166,0.0189 0.7937,0 0.86929,0 1.36063,-0.0189 -0.8693,2.910236 -2.38111,6.028347 -3.72284,7.729134 l 1.53071,0.888189 c 0.0945,-0.170079 0.20787,-0.377953 0.37795,-0.661417 0.71811,-1.266142 0.88819,-1.587402 1.34174,-2.494488 0.83149,-1.738583 1.51181,-3.552756 2.07874,-5.518111 1.28504,-0.09449 2.3622,-0.245669 3.08031,-0.377953 0.43465,-0.07559 0.43465,-0.07559 0.64252,-0.09449 l -0.0567,-1.568504 c -0.8126,0.264567 -2.00315,0.472441 -3.26929,0.585827 0.22677,-0.888189 0.34015,-1.303937 0.47244,-1.946457 0.17008,-0.812598 0.17008,-0.869291 0.28346,-1.209449 z m 11.39527,5.140157 c -1.5496,-1.001574 -2.89133,-1.662992 -5.08346,-2.513385 l -0.8126,1.285039 c 2.04095,0.737008 3.53386,1.492913 5.12126,2.588976 z m 0.0189,8.409449 c -0.11338,-0.09449 -0.11338,-0.09449 -0.28346,-0.226771 -0.17008,-0.170079 -0.24567,-0.226772 -0.52914,-0.453544 -1.13385,-0.888189 -1.81417,-1.266141 -3.21259,-1.889763 -0.11339,-0.831496 -0.20788,-1.984252 -0.20788,-2.777953 0,-0.71811 0.0567,-1.096063 0.26457,-1.814173 l -1.54961,-0.132284 c -0.13228,0.64252 -0.18897,1.133858 -0.18897,1.75748 0,0.623622 0.0567,1.644095 0.13228,2.570079 -0.7937,-0.188976 -1.26614,-0.245669 -1.90866,-0.245669 -2.32441,0 -3.94961,1.228346 -3.94961,2.985827 0,1.133858 0.69921,2.097638 1.81417,2.47559 0.60473,0.226772 1.36063,0.340158 2.05985,0.340158 1.32283,0 2.41889,-0.415748 2.98582,-1.133858 0.37796,-0.472441 0.62363,-1.228347 0.62363,-1.946457 0,-0.151181 0,-0.245669 -0.0378,-0.491339 1.32284,0.718111 2.49449,1.625197 3.1937,2.494489 z m -5.49921,-1.511811 c 0.0189,0 0.0567,0.548032 0.0567,0.755906 0,1.303937 -0.71811,1.927559 -2.21102,1.927559 -1.41732,0 -2.26772,-0.548031 -2.26772,-1.455118 0,-0.96378 0.94488,-1.587402 2.4378,-1.587402 0.71811,0 1.22834,0.09449 1.98425,0.359055 z m 8.84407,-7.124409 c 0.28346,0 0.28346,0 0.34016,0 0.0378,0 0.0756,0 0.13228,0 0.51024,0.0189 1.02047,0.03779 1.17165,0.03779 0.62363,0 1.32284,-0.0189 1.56851,-0.0189 -0.73701,3.836221 -2.11654,7.918111 -3.49607,10.355906 l 1.663,0.699213 c 1.02047,-2.437796 1.5496,-3.892914 2.15433,-5.914961 0.52913,-1.738583 1.02047,-3.798425 1.28504,-5.215748 0.98267,-0.07559 2.22992,-0.245669 3.1559,-0.434646 0.39685,-0.07559 0.39685,-0.07559 0.54803,-0.09449 l -0.0756,-1.549606 c -0.92598,0.302362 -1.92756,0.472441 -3.36378,0.623622 0.0945,-0.491339 0.13229,-0.699213 0.24567,-1.341733 0.22678,-1.341732 0.22678,-1.341732 0.34016,-1.795275 l -1.77638,-0.188977 v 0.24567 c 0,0.585826 -0.15118,1.681889 -0.41575,3.174803 -0.51023,0.0189 -0.737,0.0189 -1.03937,0.0189 -1.03937,0 -1.79527,-0.05669 -2.41889,-0.170079 z m 14.47559,0.793701 c -1.37953,-0.05669 -1.64409,-0.05669 -2.00315,-0.05669 -1.73858,0 -2.91024,0.151181 -5.17795,0.623622 l 0.15118,1.511811 c 1.77638,-0.453544 3.04252,-0.623622 4.7811,-0.623622 0.8315,0 1.36063,0.0378 2.26772,0.151181 z m -7.02992,4.044094 c -1.00158,1.341732 -1.30394,2.00315 -1.30394,2.872441 0,1.927559 1.66299,2.929134 4.8189,2.929134 1.03937,0 2.00315,-0.09449 3.40157,-0.32126 0.64252,-0.113386 0.64252,-0.113386 0.8693,-0.151181 l -0.15119,-1.68189 c -1.07716,0.396851 -2.79685,0.680315 -4.19527,0.680315 -2.04095,0 -3.1748,-0.585826 -3.1748,-1.625197 0,-0.302362 0.0945,-0.699212 0.24567,-1.020472 0.13228,-0.283465 0.24566,-0.434646 0.7937,-1.077165 z m 16.49764,-3.968504 c 0.0378,-0.0189 0.0567,-0.0189 0.0756,-0.0189 0.0378,0 0.0945,0 0.18898,0.0189 0.0378,0 0.15118,0 0.34016,0.0189 0.0567,0 0.26456,0.0189 0.56693,0.0378 0.68031,0.05669 1.37952,0.07559 2.13543,0.07559 0.69921,0 1.17165,-0.0189 2.07874,-0.05669 0.0945,3.061417 0.13228,4.251968 0.18898,4.667716 -0.49134,-0.207874 -1.20945,-0.340157 -1.96536,-0.340157 -2.15433,0 -3.68504,1.171653 -3.68504,2.815748 0,1.719685 1.39843,2.79685 3.64725,2.79685 1.62519,0 2.85354,-0.585826 3.30708,-1.587401 0.15118,-0.340158 0.22678,-0.755906 0.22678,-1.303937 0,-0.151181 0,-0.226772 -0.0189,-0.396851 0.0945,0.05669 0.0945,0.07559 0.17008,0.113386 0.15118,0.09449 0.18897,0.113386 0.20787,0.132284 1.36063,0.831496 1.37953,0.850393 1.96535,1.341732 0.24567,0.207874 0.37796,0.340157 0.56693,0.548031 l 0.68032,-1.606299 c -0.22677,-0.113386 -0.28347,-0.151181 -0.49134,-0.32126 -1.17165,-0.850393 -1.77638,-1.209448 -3.09921,-1.814173 -0.18898,-3.193701 -0.18898,-3.420472 -0.20788,-5.159055 1.15276,-0.132284 1.98426,-0.264567 2.98583,-0.491339 0.15118,-0.0378 0.18898,-0.0378 0.30236,-0.05669 l -0.0756,-1.511811 c -0.54803,0.24567 -1.81417,0.510236 -3.2126,0.680315 0,-0.472441 0,-0.812598 0,-1.058268 0,-1.417322 0.0378,-2.286614 0.11339,-2.759055 h -1.68189 c 0.0189,0.188977 0.0378,0.472441 0.0378,0.812599 0.0189,1.303937 0.0189,1.303937 0.0189,3.11811 -0.62362,0.0189 -1.05827,0.03779 -1.79527,0.03779 -1.75748,0 -2.60788,-0.07559 -3.55276,-0.283464 z m 5.6126,6.141733 c 0,0.0189 0,0.434645 0,0.548031 0,0.64252 -0.11338,1.058268 -0.32126,1.322835 -0.34016,0.377953 -1.02047,0.623622 -1.79527,0.623622 -1.22835,0 -2.05985,-0.566929 -2.05985,-1.417323 0,-0.888189 0.88819,-1.455118 2.24882,-1.455118 0.69922,0 1.17166,0.09449 1.92756,0.377953 z m -8.71181,1.020472 c 0,-0.226772 0,-0.264567 0,-0.453543 0,-0.302363 0,-0.302363 -0.0189,-0.472441 -0.0189,-0.869292 -0.0378,-1.795276 -0.0378,-2.229922 0,-3.099212 0.66141,-7.2 1.47401,-9.033071 l -1.79527,-0.245669 c 0,0.264567 -0.0378,0.510236 -0.20788,1.266142 -0.71811,3.325984 -0.94488,5.19685 -0.94488,7.748031 0,1.984253 0.15118,3.666142 0.52914,5.744883 0.0945,0.529133 0.0945,0.566929 0.0945,0.699212 l 1.6441,-0.132283 c -0.0378,-0.226772 -0.0378,-0.32126 -0.0378,-0.415748 0,-1.152756 0.8126,-3.722835 1.70079,-5.480315 l -1.19055,-0.529134 c -0.0567,0.170078 -0.0756,0.226771 -0.17008,0.453543 -0.51024,1.322835 -0.64252,1.719685 -0.98268,3.099213 z m 17.38583,-11.017323 c 0.0378,0.359055 0.0378,0.434646 0.0567,1.133858 0.0945,4.72441 0.35905,7.048819 1.00157,8.938583 0.64252,1.908662 1.70079,3.04252 2.85354,3.04252 1.43622,0 2.32441,-1.303937 3.28819,-4.743307 -0.64252,-0.491339 -0.85039,-0.699213 -1.32283,-1.266142 -0.22677,1.285039 -0.54803,2.305512 -0.98268,3.288189 -0.26457,0.604724 -0.58583,0.907087 -0.90709,0.907087 -0.68031,0 -1.39842,-1.266142 -1.79527,-3.212599 -0.26457,-1.209449 -0.45354,-3.703937 -0.45354,-5.688189 0,-1.058268 0.0378,-1.75748 0.13228,-2.381102 z m 9.56221,1.662992 c 2.22992,2.607874 3.60945,5.990551 3.91181,9.543307 l 1.6252,-0.642519 c -0.60473,-3.987402 -1.79528,-6.765355 -4.15748,-9.581103 z m 8.63622,2.910236 c 0.8315,-0.226771 1.6252,-0.377952 3.66615,-0.661417 -0.60473,2.4 -1.13386,3.930709 -2.00315,5.801575 -0.64252,1.417323 -1.39843,2.740158 -1.96536,3.458268 l 1.54961,0.888189 c 0.56693,-1.058268 0.96378,-1.851969 1.22835,-2.381103 1.24724,-2.551181 2.05984,-4.856693 2.77795,-7.899212 0.54803,-0.05669 0.88819,-0.07559 1.28504,-0.07559 1.68189,0 2.21102,0.604724 2.21102,2.532284 0,2.097637 -0.28346,4.025196 -0.7559,5.159055 -0.24567,0.566929 -0.60473,0.850394 -1.05827,0.850394 -0.66142,0 -1.73858,-0.340158 -2.77795,-0.850394 0.0756,0.453543 0.0945,0.699212 0.0945,1.058268 0,0.226771 0,0.321259 -0.0378,0.642519 1.22834,0.491339 2.05984,0.699213 2.85354,0.699213 0.90709,0 1.45512,-0.245669 1.92756,-0.869292 0.8126,-1.077165 1.32284,-3.609448 1.32284,-6.614173 0,-1.606299 -0.24567,-2.475591 -0.90709,-3.137008 -0.58583,-0.585827 -1.43622,-0.850394 -2.72126,-0.850394 -0.41575,0 -0.69921,0.0189 -1.15276,0.05669 0.0945,-0.453543 0.30236,-1.644094 0.39685,-2.15433 0.17008,-1.058268 0.22677,-1.379528 0.34016,-1.757481 l -1.77638,-0.188976 c 0,0.113386 0,0.207874 0,0.245669 0,0.774803 -0.22677,2.418898 -0.52913,3.968504 -1.5874,0.245669 -3.47717,0.453543 -4.15748,0.472441 z m 11.11182,-2.702362 c 1.79527,1.870866 3.09921,4.270866 3.79842,6.992126 l 1.49291,-0.793701 c -0.85039,-2.721259 -2.04094,-4.781102 -3.9307,-6.87874 z m 7.63465,2.777953 c 0.83149,-0.207874 1.62519,-0.359055 3.66614,-0.661417 -0.60472,2.418897 -1.13386,3.949606 -2.00315,5.820472 -0.64252,1.398425 -1.39843,2.740158 -1.96535,3.458268 l 1.5496,0.888189 1.22835,-2.381102 c 1.24724,-2.570079 2.05984,-4.856693 2.77795,-7.918111 0.54803,-0.05669 0.88819,-0.07559 1.28504,-0.07559 1.68189,0 2.21102,0.604724 2.21102,2.532283 0,2.116536 -0.28346,4.025197 -0.7748,5.177953 -0.22677,0.548031 -0.58583,0.831496 -1.03937,0.831496 -0.66142,0 -1.73858,-0.32126 -2.77795,-0.831496 0.0756,0.453543 0.0945,0.699213 0.0945,1.03937 0,0.226772 -0.0189,0.340158 -0.0378,0.661417 1.22835,0.491339 2.05984,0.680315 2.85354,0.680315 0.90709,0 1.45512,-0.226771 1.92756,-0.869291 0.8126,-1.077165 1.32284,-3.609449 1.32284,-6.614173 0,-1.6063 -0.26457,-2.475591 -0.90709,-3.137008 -0.60472,-0.585827 -1.43622,-0.831496 -2.72126,-0.831496 -0.41575,0 -0.69921,0 -1.15275,0.0378 0.0945,-0.434646 0.30236,-1.644095 0.39685,-2.135433 0.17007,-1.058268 0.22677,-1.379528 0.34015,-1.757481 l -1.77637,-0.207874 v 0.264567 c 0,0.774803 -0.22678,2.418898 -0.52914,3.968504 -1.5874,0.24567 -3.47716,0.453544 -4.15748,0.453544 z m 11.01732,-2.645669 c 1.77638,1.851968 3.09921,4.270866 3.79843,6.992126 l 1.47401,-0.812599 c -0.85039,-2.72126 -2.02205,-4.781102 -3.93071,-6.87874 z m 3.2315,-4.308662 c 0.83149,0.982677 1.39842,1.833071 1.94645,2.929134 l 1.09607,-0.623622 c -0.68032,-1.247244 -1.09607,-1.833071 -1.98426,-2.872441 z m -2.19213,1.020472 c 0.7748,0.869292 1.37953,1.814174 1.96536,2.985827 l 1.11496,-0.623622 c -0.66142,-1.228346 -1.09607,-1.870866 -1.98426,-2.929134 z m 6.97324,3.855119 c 1.00157,-0.207874 2.55118,-0.359055 6.21732,-0.604725 2.04094,-0.132283 2.94803,-0.226771 4.15748,-0.415748 -3.1937,1.436221 -5.06457,3.892914 -5.06457,6.651969 0,1.700787 0.7937,3.137008 2.24882,4.08189 1.11496,0.699212 2.22992,1.077165 4.17638,1.398425 0.30236,0.0378 0.37795,0.05669 0.60472,0.113386 l 0.26457,-1.833071 c -0.90709,0 -1.88976,-0.170079 -2.83465,-0.491339 -1.88976,-0.623622 -2.85354,-1.75748 -2.85354,-3.420472 0,-1.776378 1.07717,-3.514961 3.00473,-4.818898 1.49291,-1.001575 3.28818,-1.606299 4.81889,-1.606299 h 0.22677 l -0.13228,-1.68189 c -0.30236,0.07559 -1.05827,0.151181 -2.21102,0.188976 -3.11811,0.132284 -8.29607,0.434646 -10.94174,0.623622 -0.58582,0.0378 -0.83149,0.05669 -1.09606,0.05669 l -0.68031,-0.0189 z m 11.60315,1.776378 c 0.7748,0.869291 1.37952,1.814173 1.96535,2.985827 l 1.11496,-0.623623 c -0.66142,-1.228346 -1.09606,-1.870866 -1.98425,-2.929133 z m 2.19212,-1.020473 c 0.8315,0.982677 1.39843,1.833071 1.94646,2.929134 l 1.09606,-0.623622 c -0.68031,-1.247244 -1.09606,-1.833071 -1.98425,-2.872441 z m 13.75746,-2.588976 c -2.11654,0.05669 -2.94803,0.07559 -4.55433,0.132283 -2.85355,0.113386 -2.96693,0.113386 -3.47717,0.113386 -0.28346,0 -0.43464,0 -0.8126,-0.0189 l 0.0567,1.625197 c 1.17165,-0.188976 5.5748,-0.434645 8.80629,-0.491338 0,1.03937 0.0189,2.022047 0.0378,2.192126 v 0.132283 c -0.47244,-0.491338 -1.20945,-0.755905 -2.09764,-0.755905 -2.02205,0 -3.49606,1.36063 -3.49606,3.212598 0,1.776378 1.36063,3.080315 3.2126,3.080315 0.98267,0 1.81417,-0.340157 2.3811,-0.982677 0.20787,-0.226772 0.32126,-0.434646 0.51024,-0.831496 -0.0567,0.755906 -0.20788,1.303937 -0.54804,1.908661 -0.81259,1.474016 -2.26771,2.400001 -4.70551,3.061418 0.45355,0.491338 0.58583,0.699212 0.96378,1.455118 1.53071,-0.566929 2.32441,-0.96378 3.11811,-1.530709 1.71969,-1.266141 2.58898,-2.948031 2.58898,-4.988976 0,-0.907087 -0.13228,-1.530709 -0.47244,-2.343307 0,-2.513386 0,-2.513386 0,-3.628347 1.51181,-0.0189 1.83307,-0.0189 2.09764,-0.0189 2.07874,0 2.75905,0.0189 3.47716,0.09449 v -1.587402 c -0.62362,0.07559 -2.05984,0.113386 -5.5937,0.132284 0,-1.6063 0.0189,-1.889764 0.0945,-2.475591 h -1.70079 c 0.0567,0.39685 0.0756,0.585827 0.0945,1.096063 z m -1.90866,4.195275 c 0.58582,0 1.11496,0.188977 1.49291,0.548032 0.26457,0.264567 0.37795,0.548032 0.37795,1.001575 0,1.228346 -0.86929,2.07874 -2.09764,2.07874 -1.09606,0 -1.85196,-0.737008 -1.85196,-1.795276 0,-1.03937 0.88818,-1.833071 2.07874,-1.833071 z m 12.17008,-0.359055 c 0.8315,-0.226771 1.6252,-0.377952 3.66614,-0.661417 -0.60472,2.4 -1.13386,3.930709 -2.00315,5.801575 -0.64252,1.417323 -1.39842,2.740158 -1.96535,3.458268 l 1.5496,0.888189 c 0.56693,-1.058268 0.96378,-1.851969 1.22835,-2.381103 1.24725,-2.551181 2.05984,-4.856693 2.77795,-7.899212 0.54804,-0.05669 0.88819,-0.07559 1.28504,-0.07559 1.68189,0 2.21103,0.604724 2.21103,2.532284 0,2.097637 -0.28347,4.025196 -0.75591,5.159055 -0.24567,0.566929 -0.60472,0.850394 -1.05827,0.850394 -0.66141,0 -1.73858,-0.340158 -2.77795,-0.850394 0.0756,0.453543 0.0945,0.699212 0.0945,1.058268 0,0.226771 0,0.321259 -0.0378,0.642519 1.22835,0.491339 2.05985,0.699213 2.85355,0.699213 0.90708,0 1.45512,-0.245669 1.92756,-0.869292 0.81259,-1.077165 1.32283,-3.609448 1.32283,-6.614173 0,-1.606299 -0.24567,-2.475591 -0.90709,-3.137008 -0.58582,-0.585827 -1.43622,-0.850394 -2.72126,-0.850394 -0.41574,0 -0.69921,0.0189 -1.15275,0.05669 0.0945,-0.453543 0.30236,-1.644094 0.39685,-2.15433 0.17008,-1.058268 0.22677,-1.379528 0.34016,-1.757481 l -1.77638,-0.188976 c 0,0.113386 0,0.207874 0,0.245669 0,0.774803 -0.22677,2.418898 -0.52914,3.968504 -1.5874,0.245669 -3.47716,0.453543 -4.15748,0.472441 z m 11.11181,-2.702362 c 1.79528,1.870866 3.09921,4.270866 3.79843,6.992126 l 1.49291,-0.793701 c -0.85039,-2.721259 -2.04094,-4.781102 -3.93071,-6.87874 z m 16.00631,8.012599 c -0.0567,-0.415748 -0.0756,-0.699213 -0.0756,-0.982677 0,-0.737008 0.15118,-1.247245 0.47244,-1.68189 0.26456,-0.377953 0.51023,-0.566929 1.71968,-1.417323 1.02048,-0.71811 1.39843,-1.096063 1.73859,-1.68189 0.30236,-0.529134 0.43464,-1.114961 0.43464,-1.833071 0,-0.982677 -0.47244,-1.889764 -1.30394,-2.551181 -0.86929,-0.680315 -1.96535,-1.020473 -3.36378,-1.020473 -1.5874,0 -2.83464,0.396851 -3.74173,1.190552 -0.7748,0.661417 -1.15275,1.341732 -1.53071,2.702362 l 1.90866,0.264567 c 0.17008,-0.774803 0.32126,-1.096063 0.64252,-1.511811 0.56693,-0.737008 1.49292,-1.133858 2.66457,-1.133858 1.71969,0 2.87244,0.907086 2.87244,2.248819 0,0.510236 -0.22677,1.03937 -0.60472,1.43622 -0.28347,0.302362 -0.62362,0.585827 -1.26614,1.020472 -1.17166,0.793701 -1.30394,0.907087 -1.68189,1.417323 -0.52914,0.680315 -0.71811,1.303937 -0.71811,2.343308 0,0.566929 0,0.699212 -0.0567,1.190551 z m -1.98425,1.719685 v 2.003149 h 2.07874 v -2.003149 z"
     id="text1"
     style="font-size:18.8976px;font-family:'Hiragino Sans'"
     aria-label="こんにちは！元気です、ありがとう。あなたはいかがですか？" />
</svg>
