<?xml version="1.0" encoding="UTF-8" standalone="no"?>
<svg
   version="1.1"
   height="297mm"
   width="210mm"
   id="svg1"
   sodipodi:docname="txt.svg"
   xmlns:inkscape="http://www.inkscape.org/namespaces/inkscape"
   xmlns:sodipodi="http://sodipodi.sourceforge.net/DTD/sodipodi-0.dtd"
   xmlns="http://www.w3.org/2000/svg"
   xmlns:svg="http://www.w3.org/2000/svg">
  <defs
     id="defs1" />
  <sodipodi:namedview
     id="namedview1"
     pagecolor="#505050"
     bordercolor="#ffffff"
     borderopacity="1"
     inkscape:showpageshadow="0"
     inkscape:pageopacity="0"
     inkscape:pagecheckerboard="1"
     inkscape:deskcolor="#505050"
     inkscape:document-units="mm" />
  <path
     d="m 79.313388,64.781104 c 0.680315,-0.07559 1.096063,-0.09449 2.286614,-0.09449 h 6.916536 c 1.114961,0 1.587402,0.0189 2.248819,0.09449 v -1.851968 c -0.661417,0.113385 -1.096063,0.132283 -2.267717,0.132283 H 81.6189 c -1.152756,0 -1.625197,-0.0189 -2.305512,-0.132283 z m -1.908661,9.051969 c 0.680315,-0.07559 1.285039,-0.09449 2.418897,-0.09449 h 10.393701 c 1.133859,0 1.814174,0.0189 2.456693,0.09449 v -1.870866 c -0.680315,0.113386 -1.209449,0.132283 -2.47559,0.132283 H 79.842522 c -1.228347,0 -1.738583,-0.03779 -2.437795,-0.132283 z m 23.357483,-7.086614 -1.70079,0.264566 c -0.755905,0.132284 -1.209449,0.170079 -1.814173,0.188977 l 0.302362,1.568504 c 0.529134,-0.170079 0.982677,-0.283465 1.75748,-0.396851 l 1.681891,-0.283464 1.26614,6.840945 c 0.17008,0.888189 0.20787,1.228346 0.22677,1.795276 l 1.71969,-0.302363 c -0.18898,-0.529134 -0.18898,-0.529134 -0.41575,-1.75748 l -1.30394,-6.822047 5.29134,-0.888189 c 0.28347,-0.0378 0.37795,-0.05669 0.54803,-0.113386 -0.0378,0.09449 -0.0567,0.113386 -0.0945,0.170078 -0.81259,1.6063 -1.71968,2.570079 -3.32598,3.514961 0.56693,0.32126 0.7748,0.472441 1.22835,0.96378 1.75748,-1.228347 2.83464,-2.570079 3.68504,-4.554331 0.20787,-0.491339 0.26456,-0.623622 0.43464,-0.869291 l -0.92598,-0.831497 c -0.30236,0.113386 -0.51024,0.170079 -1.11496,0.264567 l -5.97166,1.001575 -0.28346,-1.492913 c -0.17008,-0.925984 -0.20788,-1.058268 -0.22677,-1.530709 l -1.6252,0.264567 c 0.17008,0.453543 0.22677,0.604724 0.37795,1.474016 z m 15.38268,-3.439371 c 1.68188,1.001575 3.1937,2.229922 4.61102,3.741733 l 1.15275,-1.417323 c -1.37952,-1.341732 -2.55118,-2.248819 -4.64881,-3.590551 z m 0.28346,12.340158 c 0.41575,-0.132283 0.56693,-0.170079 1.17165,-0.302362 3.04252,-0.680315 5.15906,-1.511811 7.08662,-2.834646 2.53228,-1.719685 4.28976,-3.911811 5.83937,-7.275591 -0.66142,-0.434645 -0.86929,-0.642519 -1.39843,-1.303937 -1.5496,4.062993 -4.04409,6.80315 -7.65354,8.409449 -1.75748,0.774804 -4.0252,1.36063 -5.53701,1.417323 z"
     id="text1"
     style="font-size:18.8976px;font-family:'Hiragino Sans'"
     aria-label="ニャン" />
</svg>
