<?xml version="1.0" encoding="UTF-8" standalone="no"?>
<svg
   version="1.1"
   height="297mm"
   width="210mm"
   id="svg1"
   sodipodi:docname="test.svg"
   xmlns:inkscape="http://www.inkscape.org/namespaces/inkscape"
   xmlns:sodipodi="http://sodipodi.sourceforge.net/DTD/sodipodi-0.dtd"
   xmlns="http://www.w3.org/2000/svg"
   xmlns:svg="http://www.w3.org/2000/svg">
  <defs
     id="defs1" />
  <sodipodi:namedview
     id="namedview1"
     pagecolor="#505050"
     bordercolor="#ffffff"
     borderopacity="1"
     inkscape:showpageshadow="0"
     inkscape:pageopacity="0"
     inkscape:pagecheckerboard="1"
     inkscape:deskcolor="#505050"
     inkscape:document-units="mm" />
  <path
     d="m 79.634648,63.401577 c 0.245669,0.0189 0.302362,0.0189 0.64252,0.05669 1.133858,0.151182 2.740157,0.24567 3.987401,0.24567 1.03937,0 1.700788,-0.05669 2.815748,-0.207874 l -0.359055,0.188976 c -0.245669,0.132284 -0.283464,0.151181 -0.491338,0.264567 -0.755906,0.434646 -1.096063,0.64252 -2.32441,1.455118 l 1.152756,0.925985 c 1.908662,-1.379528 3.666142,-2.456693 4.837795,-2.948032 l -0.09449,-1.511811 c -1.077165,0.264567 -2.588976,0.377953 -4.970079,0.377953 -2.15433,0 -3.83622,-0.151181 -5.064567,-0.453544 z m 11.262992,9.618897 c -1.096063,0.434646 -3.382677,0.737008 -5.707086,0.737008 -1.492914,0 -2.740158,-0.132283 -3.420473,-0.340157 -1.020472,-0.340158 -1.549606,-0.925984 -1.549606,-1.738583 0,-0.869291 0.566929,-1.719685 1.776378,-2.72126 l -1.152756,-0.869291 c -1.549607,1.322835 -2.248819,2.494488 -2.248819,3.779528 0,1.360629 0.755905,2.343307 2.229921,2.929133 0.96378,0.377953 2.570079,0.604725 4.47874,0.604725 1.6063,0 3.288189,-0.151181 5.083465,-0.434646 0.340158,-0.05669 0.415748,-0.07559 0.680315,-0.09449 z m -0.510236,-8.277165 c 0.831496,0.982677 1.398425,1.833071 1.946457,2.929134 l 1.096063,-0.623622 C 92.749609,65.801577 92.333861,65.21575 91.445672,64.17638 Z m -2.192126,1.020472 c 0.774803,0.869292 1.379528,1.814174 1.965354,2.985827 l 1.114961,-0.623622 C 90.614176,66.89764 90.17953,66.25512 89.291341,65.196852 Z m 9.127559,-1.171653 c 0.359055,-0.0378 0.415748,-0.0378 1.209449,-0.0378 2.116534,-0.0378 3.477164,-0.113386 5.102364,-0.32126 0.54803,1.190551 0.54803,1.190551 0.96378,1.965354 -1.37953,0.245669 -3.91181,0.434646 -5.782679,0.434646 -0.831496,0 -1.190551,-0.0189 -1.625197,-0.07559 l 0.03779,1.530709 c 0.377953,-0.05669 0.472441,-0.05669 1.379528,-0.07559 3.269293,-0.113386 4.988973,-0.245669 6.633073,-0.548031 0.69921,1.209449 1.36063,2.154331 1.85197,2.683464 -1.15276,-0.359055 -2.21103,-0.510236 -3.64725,-0.510236 -1.87086,0 -3.32598,0.302362 -4.308659,0.907087 -1.001575,0.604724 -1.549607,1.474016 -1.549607,2.437795 0,1.001575 0.529134,1.889764 1.436221,2.418898 0.982675,0.585827 2.229925,0.831496 4.100785,0.831496 1.68189,0 3.26929,-0.226772 4.8378,-0.680315 0.85039,-0.245669 0.85039,-0.245669 1.17165,-0.32126 l -0.30236,-1.700787 c -1.13386,0.680315 -3.68504,1.247244 -5.66929,1.247244 -2.49449,0 -3.874018,-0.64252 -3.874018,-1.814173 0,-1.228347 1.662988,-2.00315 4.327558,-2.00315 2.07874,0 3.36378,0.245669 4.51654,0.850394 l 1.26614,-0.907087 c -1.30394,-1.511811 -1.6252,-1.927559 -2.68347,-3.666142 0.8126,-0.170079 1.15276,-0.226772 1.43622,-0.302362 2.05985,-0.510236 2.05985,-0.510236 2.47559,-0.585827 l -0.17007,-1.530709 c -0.75591,0.359056 -1.87087,0.64252 -4.34646,1.152756 -0.28347,-0.491338 -0.66142,-1.247244 -0.98268,-1.946456 0.96378,-0.151181 3.26929,-0.64252 4.70551,-1.020473 l -0.13228,-1.474016 c -1.15276,0.472441 -3.08031,0.925985 -5.06457,1.228347 -0.51023,-1.152756 -0.8126,-2.00315 -0.92598,-2.551181 l -1.68189,0.264567 c 0.15118,0.264567 0.68031,1.474015 1.07716,2.47559 -1.39842,0.170079 -2.74015,0.24567 -4.308657,0.24567 -0.699212,0 -1.058268,-0.0189 -1.530709,-0.05669 z m 22.903933,1.814173 c 0.11339,-0.0189 0.20788,-0.0189 0.30237,-0.0189 0.0945,0 0.20787,0 0.30236,0.0189 0.88819,0.05669 1.68189,0.07559 2.22992,0.07559 0.85039,0 2.02205,-0.0378 2.75906,-0.113386 l 0.0189,1.511811 c 0,2.815748 -0.34015,4.233071 -1.28504,5.423622 -0.69921,0.869291 -1.5685,1.511811 -2.89133,2.135433 0.60472,0.453543 0.7937,0.661418 1.26614,1.247244 2.13543,-1.228346 3.1937,-2.343307 3.79842,-4.006299 0.49134,-1.322835 0.66142,-2.607874 0.66142,-5.083465 l -0.0189,-1.379527 c 0.8315,-0.113386 1.20945,-0.170079 2.00315,-0.359055 0.60473,-0.151182 0.68032,-0.170079 1.02047,-0.207874 l -0.0945,-1.625197 c -0.69922,0.340157 -1.58741,0.566929 -2.96693,0.774803 -0.0567,-1.587402 -0.0756,-2.588977 -0.0945,-3.004725 l -0.0189,-0.548031 c 0,-0.207874 0,-0.340158 0.0378,-0.64252 l -1.71969,0.0378 c 0.0945,0.56693 0.11339,0.850394 0.24567,4.32756 -0.98268,0.07559 -1.53071,0.09449 -2.32441,0.09449 -1.45512,0 -2.47559,-0.07559 -3.2315,-0.24567 z m -3.55275,-5.555906 c 0,0.415748 -0.0189,0.585827 -0.15118,1.322835 -0.58583,3.609449 -0.73701,5.064567 -0.73701,7.237796 0,2.040944 0.22677,3.892913 0.69921,5.763779 0.0945,0.359055 0.11339,0.434646 0.15118,0.680315 l 1.54961,-0.113386 c 0,-0.661417 0.15118,-1.322834 0.54803,-2.437795 0.37795,-1.077165 0.86929,-2.267717 1.43622,-3.382677 l -1.20945,-0.566929 c -0.90708,2.040945 -1.11496,2.607874 -1.43622,3.911811 -0.0189,-0.32126 -0.0567,-0.869292 -0.0756,-1.209449 -0.0945,-1.020473 -0.13228,-1.908662 -0.13228,-2.72126 0,-2.626772 0.52913,-6.387402 1.15275,-8.258268 z m 10.96063,-0.7937 c 0.56693,0.944881 0.86929,1.681889 1.30394,3.099212 l 1.09606,-0.340157 c -0.41575,-1.341733 -0.68032,-1.946457 -1.30394,-3.061418 z m 2.22992,-0.56693 c 0.52913,0.907087 0.92598,1.795276 1.32284,3.04252 l 1.05826,-0.359055 c -0.37795,-1.190551 -0.71811,-1.965354 -1.34173,-3.023622 z m 8.0882,0.907087 c -0.13229,0.661417 -0.52914,1.833071 -2.57008,7.294488 -2.70236,7.256694 -2.70236,7.256694 -2.96693,7.84252 l 1.73858,0.548032 c 0.22677,-1.114961 1.07717,-3.269292 1.70079,-4.327559 1.02047,-1.776378 2.19212,-2.759055 3.28819,-2.759055 0.51023,0 0.83149,0.207874 1.00157,0.680314 0.0945,0.32126 0.13229,0.661418 0.13229,1.6063 v 0.869291 c 0,1.020473 0.0567,1.644095 0.20787,2.059843 0.39685,1.096063 1.39842,1.700787 2.83465,1.700787 1.5685,0 2.94803,-0.737008 3.81732,-2.059842 0.62362,-0.925985 1.03937,-1.965355 1.37953,-3.477166 -0.77481,-0.453543 -0.98268,-0.604724 -1.47402,-1.096063 -0.0945,1.001575 -0.34016,1.927559 -0.71811,2.777953 -0.64252,1.530709 -1.5874,2.267717 -2.83465,2.267717 -0.64252,0 -1.13385,-0.207875 -1.36063,-0.56693 -0.22677,-0.340157 -0.28346,-0.755905 -0.28346,-1.833071 0,-2.116535 -0.0189,-2.437795 -0.20787,-3.023622 -0.28347,-0.850393 -1.13386,-1.455118 -2.07874,-1.455118 -0.92599,0 -1.6441,0.32126 -2.4,1.03937 -0.30237,0.283465 -0.49134,0.510237 -0.96378,1.152756 l -0.0756,-0.0378 c 1.00157,-2.07874 1.15275,-2.456693 2.74015,-6.557481 0.58583,-1.511811 0.66142,-1.700787 0.92599,-2.173228 z m 20.25826,-0.132283 c 0.0567,0.472441 0.0756,0.623622 0.0756,1.568504 0.0378,2.929134 0.22677,8.050394 0.32126,8.692913 -0.30236,-0.113386 -1.24724,-0.226771 -1.90866,-0.226771 -2.66457,0 -4.45984,1.247244 -4.45984,3.099212 0,1.833071 1.53071,2.929134 4.08189,2.929134 1.6252,0 2.85354,-0.453543 3.45827,-1.303937 0.34015,-0.453543 0.51023,-1.114961 0.51023,-1.889764 0,-0.302362 -0.0189,-0.585826 -0.0756,-0.774803 0.20788,0.113386 0.22677,0.132284 0.45355,0.226772 1.68189,0.755905 3.62834,2.116535 4.36535,3.04252 l 1.05827,-1.568504 c -0.37796,-0.24567 -0.47244,-0.302363 -0.90709,-0.604725 -1.94646,-1.398425 -3.36378,-2.154331 -5.00787,-2.664567 -0.11339,-1.455118 -0.18898,-3.04252 -0.22677,-4.686614 1.5685,-0.0378 2.87244,-0.151181 4.49763,-0.377953 0.8126,-0.113386 0.8126,-0.113386 1.17166,-0.132283 l -0.17008,-1.644095 c -1.11496,0.39685 -3.43937,0.699213 -5.53701,0.699213 -0.0189,-1.020473 -0.0189,-1.341733 -0.0189,-1.68189 0,-1.587402 0.0189,-2.173229 0.0945,-2.702362 z m 0.41575,11.716535 c 0.0189,0 0.0567,0.737008 0.0567,1.03937 0,0.56693 -0.13228,0.96378 -0.43464,1.228347 -0.43465,0.39685 -1.13386,0.604724 -1.98425,0.604724 -1.45512,0 -2.4,-0.566929 -2.4,-1.43622 0,-1.001575 1.11496,-1.662992 2.81574,-1.662992 0.7937,0 1.17166,0.0378 1.94646,0.226771 z m 15.2126,-9.883464 c 2.58897,0.699212 5.00787,1.058267 8.20157,1.228346 l 0.24567,-1.625197 c -2.04094,-0.0189 -3.42047,-0.151181 -5.23464,-0.472441 -1.17166,-0.207874 -1.77638,-0.359055 -2.66457,-0.680315 z m -1.87087,6.179527 c 1.56851,-0.623622 5.27244,-1.266142 7.42677,-1.266142 2.09764,0 3.2504,0.850394 3.2504,2.400001 0,1.492913 -0.90709,2.834645 -2.51339,3.76063 -1.53071,0.869291 -3.40157,1.379527 -5.44252,1.511811 0.37795,0.585826 0.49134,0.869291 0.71811,1.644094 2.83465,-0.491338 4.19528,-0.925984 5.6315,-1.75748 2.11653,-1.209449 3.34488,-3.155906 3.34488,-5.253544 0,-1.322834 -0.60472,-2.437795 -1.68189,-3.099212 -0.75591,-0.472441 -1.92756,-0.737008 -3.30709,-0.737008 -1.5496,0 -3.1937,0.188976 -5.85826,0.680315 -1.53071,0.283464 -1.53071,0.283464 -1.98426,0.32126 z"
     id="text1"
     style="font-size:18.8976px;font-family:'Hiragino Sans'"
     aria-label="ごきげんよう" />
</svg>
