<?xml version="1.0" encoding="UTF-8" standalone="no"?>
<svg
   version="1.1"
   height="297mm"
   width="210mm"
   id="svg1"
   sodipodi:docname="txt.svg"
   xmlns:inkscape="http://www.inkscape.org/namespaces/inkscape"
   xmlns:sodipodi="http://sodipodi.sourceforge.net/DTD/sodipodi-0.dtd"
   xmlns="http://www.w3.org/2000/svg"
   xmlns:svg="http://www.w3.org/2000/svg">
  <defs
     id="defs1" />
  <sodipodi:namedview
     id="namedview1"
     pagecolor="#505050"
     bordercolor="#ffffff"
     borderopacity="1"
     inkscape:showpageshadow="0"
     inkscape:pageopacity="0"
     inkscape:pagecheckerboard="1"
     inkscape:deskcolor="#505050"
     inkscape:document-units="mm" />
  <path
     d="m 77.007876,61.020474 c 0.113386,0.699213 0.151181,1.190551 0.151181,2.211024 V 73.37953 c 0,1.001574 -0.0378,1.492913 -0.151181,2.211023 h 2.097638 C 78.992128,74.929136 78.954333,74.286616 78.954333,73.37953 V 63.231498 c 0,-0.888189 0.03779,-1.530709 0.151181,-2.211024 z m 4.497632,0 0.359055,4.856693 h 1.152756 l 0.359055,-4.856693 z m 6.10393,14.570079 C 87.51495,74.81575 87.477155,74.286616 87.477155,73.360632 v -3.722835 c 0,-0.377953 0.340157,-1.322834 0.661417,-1.795275 0.585827,-0.850394 1.474016,-1.379528 2.32441,-1.379528 1.341732,0 2.040945,0.850394 2.040945,2.494488 v 4.40315 c 0,0.982677 -0.0378,1.549606 -0.132284,2.229921 h 1.984252 c -0.09449,-0.680315 -0.132283,-1.228346 -0.132283,-2.211023 v -3.741733 c 0,-0.472441 0.32126,-1.379527 0.661417,-1.870866 0.566929,-0.831496 1.398425,-1.303937 2.286614,-1.303937 0.529134,0 0.96378,0.113386 1.28504,0.340157 0.566929,0.396851 0.774803,1.001575 0.774803,2.154331 v 4.40315 c 0,1.03937 -0.0189,1.474016 -0.132283,2.229921 h 1.984247 c -0.0945,-0.680315 -0.13228,-1.228346 -0.13228,-2.211023 v -4.686615 c 0,-1.171653 -0.20787,-1.946456 -0.71811,-2.570079 -0.585826,-0.755905 -1.530708,-1.133858 -2.777952,-1.133858 -1.606299,0 -2.626772,0.566929 -3.571654,1.965355 -0.188976,-0.529134 -0.302362,-0.755906 -0.585826,-1.039371 -0.56693,-0.623622 -1.379528,-0.925984 -2.456693,-0.925984 -1.511811,0 -2.72126,0.64252 -3.401575,1.833071 0,-0.113386 0,-0.113386 0.0189,-0.283464 0,-0.05669 0.0189,-0.340158 0.0189,-0.396851 v -0.944882 h -1.833071 c 0.09449,0.680315 0.132284,1.190551 0.132284,2.229922 v 5.933858 c 0,0.944882 -0.0378,1.511811 -0.132284,2.229921 z M 110.4567,65.196852 c 0.0945,0.699213 0.13228,1.228347 0.13228,2.229922 v 8.787401 c 0,0.831496 -0.0567,1.133859 -0.22677,1.417323 -0.18898,0.283465 -0.54803,0.434646 -1.02047,0.434646 -0.66142,0 -1.09607,-0.283465 -1.5874,-1.020473 l -1.56851,0.944882 c 0.90709,1.133859 1.71969,1.549607 3.08032,1.549607 1.03937,0 1.75748,-0.226772 2.26771,-0.680315 0.58583,-0.529134 0.7937,-1.209449 0.7937,-2.513386 v -8.919685 c 0,-0.982678 0.0378,-1.530709 0.13229,-2.229922 z m -0.0378,-4.176378 v 1.889764 h 2.09764 v -1.889764 z m 12.15117,4.176378 c 0.0945,0.755906 0.13228,1.398425 0.13228,2.229922 v 3.703937 c -0.20788,0.774803 -0.45354,1.228346 -0.96378,1.833071 -0.7748,0.925984 -1.5874,1.341732 -2.57008,1.341732 -1.43622,0 -2.17323,-0.850394 -2.17323,-2.513386 v -4.365354 c 0,-0.888189 0.0378,-1.436221 0.13229,-2.229922 h -1.98426 c 0.0945,0.64252 0.13229,1.228347 0.13229,2.211024 v 4.648819 c 0,1.001575 0.18897,1.738583 0.56693,2.305512 0.62362,0.907086 1.70078,1.398425 3.08031,1.398425 1.66299,0 2.87244,-0.661417 3.81732,-2.097638 -0.0378,0.472441 -0.0378,0.566929 -0.0378,0.812599 v 1.11496 h 1.85197 c -0.11339,-0.755905 -0.15118,-1.303937 -0.15118,-2.229921 v -5.933858 c 0,-0.96378 0.0378,-1.474016 0.15118,-2.229922 z m 4.063,7.52126 c 0.18898,0.793701 0.34016,1.133859 0.64252,1.549607 0.73701,1.001574 2.07874,1.530708 3.85512,1.530708 2.72126,0 4.38425,-1.209449 4.38425,-3.193701 0,-0.831496 -0.39685,-1.606299 -1.05827,-2.097637 -0.56692,-0.415748 -1.26614,-0.661418 -3.00472,-1.039371 -1.13386,-0.245669 -1.5874,-0.39685 -2.02205,-0.623622 -0.39685,-0.207874 -0.62362,-0.585826 -0.62362,-1.001574 0,-0.944882 0.92598,-1.587402 2.24882,-1.587402 0.8315,0 1.47402,0.245669 1.88976,0.699213 0.24567,0.264567 0.34016,0.491338 0.45355,0.963779 l 1.77637,-0.264567 c -0.26456,-0.869291 -0.51023,-1.322834 -1.02047,-1.75748 -0.69921,-0.623622 -1.77638,-0.96378 -3.11811,-0.96378 -1.34173,0 -2.4,0.340158 -3.11811,1.03937 -0.52913,0.491339 -0.83149,1.171654 -0.83149,1.889764 0,0.907087 0.41574,1.662992 1.19055,2.154331 0.66141,0.415748 1.30393,0.623622 2.77795,0.925984 1.43622,0.32126 1.73858,0.396851 2.15433,0.661418 0.37795,0.226771 0.56693,0.623622 0.56693,1.11496 0,1.03937 -1.00158,1.700788 -2.55118,1.700788 -0.92599,0 -1.6252,-0.226772 -2.09764,-0.64252 -0.35905,-0.340157 -0.51024,-0.64252 -0.64252,-1.341732 z m 12.18897,-10.355906 c 0.0756,0.64252 0.13228,1.398426 0.13228,2.154331 v 0.680315 h -0.737 c -0.7937,0 -1.17166,-0.0189 -1.70079,-0.113386 v 1.662993 c 0.60472,-0.07559 1.02047,-0.113386 1.68189,-0.113386 h 0.7559 v 6.633071 c 0,0.963779 0.17008,1.530708 0.58583,1.927559 0.41575,0.377953 1.09606,0.585827 2.00315,0.585827 0.7937,0 1.39843,-0.113386 2.19213,-0.434646 l -0.41575,-1.530709 c -0.58583,0.340158 -0.96378,0.453544 -1.47402,0.453544 -0.39685,0 -0.71811,-0.113386 -0.90708,-0.283465 -0.18898,-0.188976 -0.26457,-0.453543 -0.26457,-1.001575 v -6.349606 h 0.88819 c 0.86929,0 1.30394,0.0189 1.90866,0.113386 v -1.662993 c -0.62362,0.09449 -1.03937,0.113386 -1.92756,0.113386 h -0.86929 v -0.680315 c 0,-0.812598 0.0567,-1.549606 0.13228,-2.154331 z m 19.59687,13.228347 h 1.79527 C 160.1008,74.796852 160.063,74.343309 160.063,73.417325 v -5.253544 c 0,-1.03937 -0.24567,-1.75748 -0.8126,-2.286614 -0.68031,-0.661417 -1.71968,-0.982677 -3.1559,-0.982677 -1.45512,0 -2.60788,0.340157 -3.43937,1.03937 -0.54803,0.434646 -0.8315,0.869291 -1.17166,1.814173 l 1.75748,0.340158 c 0.17008,-0.510236 0.30237,-0.755906 0.54804,-1.020473 0.51023,-0.529133 1.26614,-0.7937 2.28661,-0.7937 1.6063,0 2.34331,0.604724 2.34331,1.889763 v 0.982678 c -2.4567,0.05669 -3.49607,0.188976 -4.62992,0.548031 -1.6252,0.529134 -2.55119,1.662992 -2.55119,3.11811 0,1.833071 1.30394,2.948032 3.42048,2.948032 0.737,0 1.43622,-0.113386 2.07874,-0.359055 0.62362,-0.226772 0.96378,-0.453543 1.68189,-1.077165 z m 0,-4.025197 c 0,0.699213 -0.17008,1.152756 -0.62363,1.625197 -0.737,0.755906 -1.87086,1.228347 -2.91023,1.228347 -1.19055,0 -1.92756,-0.623622 -1.92756,-1.6063 0,-0.869291 0.47244,-1.474015 1.41732,-1.851968 0.8315,-0.340158 1.88977,-0.472441 4.0441,-0.529134 z m 19.57797,-3.571653 c -0.20787,-0.548032 -0.37795,-0.869292 -0.66141,-1.266142 -0.8315,-1.190551 -2.15433,-1.814173 -3.79843,-1.814173 -3.00472,0 -4.97008,2.192126 -4.97008,5.51811 0,3.307087 1.98425,5.423622 5.04567,5.423622 1.6063,0 2.89134,-0.566929 3.74173,-1.68189 0.32126,-0.415748 0.51024,-0.774803 0.77481,-1.492913 l -1.68189,-0.415748 c -0.15118,0.472441 -0.24567,0.699213 -0.39685,0.944882 -0.49134,0.755905 -1.34174,1.171653 -2.38111,1.171653 -2.05984,0 -3.36378,-1.549606 -3.36378,-3.987401 0,-2.475591 1.26615,-4.044095 3.28819,-4.044095 1.34174,0 2.22993,0.680315 2.74016,2.116536 z m 6.97322,7.861417 c 3.11811,0 5.15906,-2.154331 5.15906,-5.480315 0,-3.325984 -2.02205,-5.44252 -5.19685,-5.44252 -3.17481,0 -5.19685,2.135433 -5.19685,5.461418 0,3.344882 2.02204,5.461417 5.23464,5.461417 z m 0,-9.505512 c 2.11654,0 3.42048,1.549606 3.42048,4.062992 0,2.494489 -1.30394,4.0063 -3.45827,4.0063 -2.13544,0 -3.45827,-1.549607 -3.45827,-4.044095 0,-2.494488 1.34173,-4.025197 3.49606,-4.025197 z m 9.25985,9.240945 c -0.0945,-0.774803 -0.13228,-1.303937 -0.13228,-2.229921 v -3.722835 c 0,-0.377953 0.34016,-1.322834 0.66142,-1.795275 0.58582,-0.850394 1.47401,-1.379528 2.32441,-1.379528 1.34173,0 2.04094,0.850394 2.04094,2.494488 v 4.40315 c 0,0.982677 -0.0378,1.549606 -0.13228,2.229921 h 1.98425 c -0.0945,-0.680315 -0.13228,-1.228346 -0.13228,-2.211023 v -3.741733 c 0,-0.472441 0.32126,-1.379527 0.66142,-1.870866 0.56692,-0.831496 1.39842,-1.303937 2.28661,-1.303937 0.52913,0 0.96378,0.113386 1.28504,0.340157 0.56693,0.396851 0.7748,1.001575 0.7748,2.154331 v 4.40315 c 0,1.03937 -0.0189,1.474016 -0.13228,2.229921 h 1.98425 c -0.0945,-0.680315 -0.13228,-1.228346 -0.13228,-2.211023 v -4.686615 c 0,-1.171653 -0.20788,-1.946456 -0.71811,-2.570079 -0.58583,-0.755905 -1.53071,-1.133858 -2.77796,-1.133858 -1.6063,0 -2.62677,0.566929 -3.57165,1.965355 -0.18898,-0.529134 -0.30236,-0.755906 -0.58583,-1.039371 -0.56693,-0.623622 -1.37952,-0.925984 -2.45669,-0.925984 -1.51181,0 -2.72126,0.64252 -3.40157,1.833071 0,-0.113386 0,-0.113386 0.0189,-0.283464 0,-0.05669 0.0189,-0.340158 0.0189,-0.396851 v -0.944882 h -1.83307 c 0.0945,0.680315 0.13228,1.190551 0.13228,2.229922 v 5.933858 c 0,0.944882 -0.0378,1.511811 -0.13228,2.229921 z m 18.00947,3.874016 c -0.0945,-0.699212 -0.13229,-1.285039 -0.13229,-2.248819 v -2.003149 c 0,-0.510237 -0.0189,-0.793701 -0.0567,-1.303938 0.96378,1.228347 2.22992,1.833071 3.87401,1.833071 2.91024,0 4.78111,-2.097637 4.78111,-5.385827 0,-3.344882 -1.81418,-5.366929 -4.8189,-5.366929 -1.68189,0 -2.92913,0.623622 -3.83622,1.908662 0.0378,-0.396851 0.0378,-0.510237 0.0378,-0.737008 v -0.96378 h -1.79527 c 0.0945,0.71811 0.13228,1.303937 0.13228,2.267717 v 9.770079 c 0,0.850394 -0.0378,1.474016 -0.13228,2.229921 z m 3.45826,-5.177953 c -0.94488,0 -1.90866,-0.377953 -2.51338,-1.001575 -0.66142,-0.661417 -1.05827,-1.75748 -1.05827,-2.910236 0,-2.305512 1.45512,-3.911811 3.59055,-3.911811 2.05984,0 3.2315,1.417323 3.2315,3.892913 0,2.456693 -1.22835,3.930709 -3.2504,3.930709 z m 14.53227,-9.089764 c 0.0945,0.755906 0.13229,1.398425 0.13229,2.229922 v 3.703937 c -0.20788,0.774803 -0.45355,1.228346 -0.96378,1.833071 -0.7748,0.925984 -1.5874,1.341732 -2.57008,1.341732 -1.43622,0 -2.17323,-0.850394 -2.17323,-2.513386 v -4.365354 c 0,-0.888189 0.0378,-1.436221 0.13228,-2.229922 h -1.98425 c 0.0945,0.64252 0.13229,1.228347 0.13229,2.211024 v 4.648819 c 0,1.001575 0.18897,1.738583 0.56693,2.305512 0.62362,0.907086 1.70078,1.398425 3.08031,1.398425 1.66299,0 2.87244,-0.661417 3.81732,-2.097638 -0.0378,0.472441 -0.0378,0.566929 -0.0378,0.812599 v 1.11496 h 1.85197 c -0.11339,-0.755905 -0.15118,-1.303937 -0.15118,-2.229921 v -5.933858 c 0,-0.96378 0.0378,-1.474016 0.15118,-2.229922 z m 5.8016,-2.834646 c 0.0756,0.64252 0.13228,1.398426 0.13228,2.154331 v 0.680315 h -0.737 c -0.7937,0 -1.17166,-0.0189 -1.70079,-0.113386 v 1.662993 c 0.60472,-0.07559 1.02047,-0.113386 1.68189,-0.113386 h 0.7559 v 6.633071 c 0,0.963779 0.17008,1.530708 0.58583,1.927559 0.41575,0.377953 1.09606,0.585827 2.00315,0.585827 0.7937,0 1.39843,-0.113386 2.19213,-0.434646 l -0.41575,-1.530709 c -0.58583,0.340158 -0.96378,0.453544 -1.47402,0.453544 -0.39685,0 -0.71811,-0.113386 -0.90708,-0.283465 -0.18898,-0.188976 -0.26457,-0.453543 -0.26457,-1.001575 v -6.349606 h 0.88819 c 0.86929,0 1.30394,0.0189 1.90866,0.113386 v -1.662993 c -0.62362,0.09449 -1.03937,0.113386 -1.92756,0.113386 h -0.86929 v -0.680315 c 0,-0.812598 0.0567,-1.549606 0.13228,-2.154331 z m 15.70394,8.352757 c -0.0567,-0.944882 -0.0945,-1.341733 -0.13228,-1.530709 -0.37795,-2.645669 -2.17323,-4.251969 -4.72441,-4.251969 -2.94803,0 -4.87559,2.154331 -4.87559,5.461418 0,3.363779 1.94646,5.480315 5.00788,5.480315 1.45511,0 2.66456,-0.472441 3.57165,-1.379528 0.45354,-0.434645 0.69921,-0.812598 1.05827,-1.606299 l -1.58741,-0.585827 c -0.18897,0.548032 -0.32126,0.793701 -0.60472,1.096063 -0.58583,0.680315 -1.41732,1.03937 -2.4189,1.03937 -1.09606,0 -1.98425,-0.415748 -2.57008,-1.209449 -0.49133,-0.661417 -0.68031,-1.285039 -0.7559,-2.513385 z m -7.9748,-1.379528 c 0.11339,-0.680315 0.20788,-0.982677 0.47244,-1.436221 0.56693,-1.001574 1.49292,-1.549606 2.60788,-1.549606 0.88819,0 1.6063,0.264567 2.17322,0.812599 0.54804,0.548031 0.8315,1.190551 0.94489,2.173228 z m 17.00787,-4.138583 c -0.7748,-0.132283 -1.15276,-0.170079 -1.73858,-0.170079 -0.98268,0 -1.85197,0.264567 -2.49449,0.774804 -0.32126,0.226771 -0.54803,0.510236 -0.86929,1.001574 0.0189,-0.151181 0.0189,-0.188976 0.0378,-0.321259 0,-0.05669 0,-0.09449 0,-0.132284 0,-0.09449 0,-0.151181 0,-0.170079 v -0.982677 h -1.85196 c 0.0945,0.699213 0.13228,1.228347 0.13228,2.229922 v 5.933858 c 0,0.850394 -0.0189,1.303937 -0.13228,2.229921 h 1.98425 c -0.0945,-0.774803 -0.13229,-1.322834 -0.13229,-2.229921 V 69.6189 c 0.0945,-0.869292 0.26457,-1.322835 0.71811,-1.908662 0.56693,-0.71811 1.32284,-1.077165 2.30552,-1.077165 0.49133,0 0.85039,0.05669 1.5496,0.283464 z m 9.77008,14.267717 c -0.0945,-0.699212 -0.13228,-1.285039 -0.13228,-2.248819 v -2.003149 c 0,-0.510237 -0.0189,-0.793701 -0.0567,-1.303938 0.96378,1.228347 2.22992,1.833071 3.87402,1.833071 2.91024,0 4.7811,-2.097637 4.7811,-5.385827 0,-3.344882 -1.81417,-5.366929 -4.8189,-5.366929 -1.68189,0 -2.92913,0.623622 -3.83622,1.908662 0.0378,-0.396851 0.0378,-0.510237 0.0378,-0.737008 v -0.96378 h -1.79528 c 0.0945,0.71811 0.13229,1.303937 0.13229,2.267717 v 9.770079 c 0,0.850394 -0.0378,1.474016 -0.13229,2.229921 z m 3.45827,-5.177953 c -0.94488,0 -1.90866,-0.377953 -2.51339,-1.001575 -0.66142,-0.661417 -1.05827,-1.75748 -1.05827,-2.910236 0,-2.305512 1.45512,-3.911811 3.59056,-3.911811 2.05984,0 3.23149,1.417323 3.23149,3.892913 0,2.456693 -1.22834,3.930709 -3.25039,3.930709 z m 14.05984,-9.089764 c -0.7748,-0.132283 -1.15275,-0.170079 -1.73858,-0.170079 -0.98268,0 -1.85197,0.264567 -2.49449,0.774804 -0.32126,0.226771 -0.54803,0.510236 -0.86929,1.001574 0.0189,-0.151181 0.0189,-0.188976 0.0378,-0.321259 0,-0.05669 0,-0.09449 0,-0.132284 0,-0.09449 0,-0.151181 0,-0.170079 v -0.982677 h -1.85197 c 0.0945,0.699213 0.13228,1.228347 0.13228,2.229922 v 5.933858 c 0,0.850394 -0.0189,1.303937 -0.13228,2.229921 h 1.98425 c -0.0945,-0.774803 -0.13228,-1.322834 -0.13228,-2.229921 V 69.6189 c 0.0945,-0.869292 0.26456,-1.322835 0.71811,-1.908662 0.56693,-0.71811 1.32283,-1.077165 2.30551,-1.077165 0.49134,0 0.85039,0.05669 1.5496,0.283464 z m 6.29292,10.658268 c 3.11811,0 5.15906,-2.154331 5.15906,-5.480315 0,-3.325984 -2.02205,-5.44252 -5.19685,-5.44252 -3.17481,0 -5.19685,2.135433 -5.19685,5.461418 0,3.344882 2.02204,5.461417 5.23464,5.461417 z m 0,-9.505512 c 2.11654,0 3.42048,1.549606 3.42048,4.062992 0,2.494489 -1.30394,4.0063 -3.45827,4.0063 -2.13544,0 -3.45827,-1.549607 -3.45827,-4.044095 0,-2.494488 1.34173,-4.025197 3.49606,-4.025197 z m 7.21891,11.244095 c 1.24724,1.379528 2.49449,1.908661 4.44094,1.908661 1.73859,0 3.2315,-0.510236 4.0441,-1.379527 0.85039,-0.888189 1.20945,-2.097638 1.20945,-4.100788 v -6.633071 c 0,-0.925984 0.0378,-1.417323 0.13228,-2.192126 h -1.77638 v 0.96378 c 0,0.207874 0,0.340157 0.0378,0.642519 -0.7937,-1.171653 -2.00315,-1.776378 -3.59055,-1.776378 -2.98583,0 -4.87559,2.059843 -4.87559,5.272442 0,3.1937 1.85197,5.215748 4.7811,5.215748 1.11496,0 2.13543,-0.32126 2.87244,-0.888189 0.32126,-0.264567 0.51024,-0.491339 0.8126,-0.982677 -0.0378,1.247244 -0.17008,2.059842 -0.37795,2.588976 -0.49134,1.209449 -1.6441,1.870866 -3.2315,1.870866 -1.32284,0 -2.26772,-0.453543 -3.06142,-1.492913 z m 1.37953,-7.256693 c 0,-2.4 1.24724,-3.892914 3.26929,-3.892914 2.02205,0 3.36378,1.492914 3.36378,3.741733 0,2.343307 -1.41732,3.930708 -3.47717,3.930708 -1.94645,0 -3.1559,-1.455118 -3.1559,-3.779527 z m 17.95274,-5.140158 c -0.7748,-0.132283 -1.15275,-0.170079 -1.73858,-0.170079 -0.98268,0 -1.85197,0.264567 -2.49449,0.774804 -0.32126,0.226771 -0.54803,0.510236 -0.86929,1.001574 0.0189,-0.151181 0.0189,-0.188976 0.0378,-0.321259 0,-0.05669 0,-0.09449 0,-0.132284 0,-0.09449 0,-0.151181 0,-0.170079 v -0.982677 h -1.85197 c 0.0945,0.699213 0.13228,1.228347 0.13228,2.229922 v 5.933858 c 0,0.850394 -0.0189,1.303937 -0.13228,2.229921 h 1.98425 c -0.0945,-0.774803 -0.13228,-1.322834 -0.13228,-2.229921 V 69.6189 c 0.0945,-0.869292 0.26456,-1.322835 0.71811,-1.908662 0.56693,-0.71811 1.32283,-1.077165 2.30551,-1.077165 0.49134,0 0.85039,0.05669 1.54961,0.283464 z m 8.39058,10.393701 h 1.79527 c -0.11338,-0.793701 -0.15118,-1.247244 -0.15118,-2.173228 v -5.253544 c 0,-1.03937 -0.24567,-1.75748 -0.8126,-2.286614 -0.68031,-0.661417 -1.71968,-0.982677 -3.1559,-0.982677 -1.45512,0 -2.60788,0.340157 -3.43937,1.03937 -0.54803,0.434646 -0.8315,0.869291 -1.17166,1.814173 l 1.75748,0.340158 c 0.17008,-0.510236 0.30237,-0.755906 0.54804,-1.020473 0.51023,-0.529133 1.26614,-0.7937 2.28661,-0.7937 1.6063,0 2.34331,0.604724 2.34331,1.889763 v 0.982678 c -2.4567,0.05669 -3.49607,0.188976 -4.62992,0.548031 -1.6252,0.529134 -2.55119,1.662992 -2.55119,3.11811 0,1.833071 1.30394,2.948032 3.42048,2.948032 0.73701,0 1.43622,-0.113386 2.07874,-0.359055 0.62362,-0.226772 0.96378,-0.453543 1.68189,-1.077165 z m 0,-4.025197 c 0,0.699213 -0.17008,1.152756 -0.62362,1.625197 -0.73701,0.755906 -1.87087,1.228347 -2.91024,1.228347 -1.19055,0 -1.92756,-0.623622 -1.92756,-1.6063 0,-0.869291 0.47244,-1.474015 1.41732,-1.851968 0.8315,-0.340158 1.88977,-0.472441 4.0441,-0.529134 z m 6.29293,4.025197 c -0.0945,-0.774803 -0.13228,-1.303937 -0.13228,-2.229921 v -3.722835 c 0,-0.377953 0.34016,-1.322834 0.66142,-1.795275 0.58582,-0.850394 1.47401,-1.379528 2.32441,-1.379528 1.34173,0 2.04094,0.850394 2.04094,2.494488 v 4.40315 c 0,0.982677 -0.0378,1.549606 -0.13228,2.229921 h 1.98425 c -0.0945,-0.680315 -0.13228,-1.228346 -0.13228,-2.211023 v -3.741733 c 0,-0.472441 0.32126,-1.379527 0.66141,-1.870866 0.56693,-0.831496 1.39843,-1.303937 2.28662,-1.303937 0.52913,0 0.96378,0.113386 1.28504,0.340157 0.56693,0.396851 0.7748,1.001575 0.7748,2.154331 v 4.40315 c 0,1.03937 -0.0189,1.474016 -0.13228,2.229921 h 1.98425 c -0.0945,-0.680315 -0.13228,-1.228346 -0.13228,-2.211023 v -4.686615 c 0,-1.171653 -0.20788,-1.946456 -0.71812,-2.570079 -0.58582,-0.755905 -1.5307,-1.133858 -2.77795,-1.133858 -1.6063,0 -2.62677,0.566929 -3.57165,1.965355 -0.18898,-0.529134 -0.30236,-0.755906 -0.58583,-1.039371 -0.56693,-0.623622 -1.37953,-0.925984 -2.45669,-0.925984 -1.51181,0 -2.72126,0.64252 -3.40158,1.833071 0,-0.113386 0,-0.113386 0.0189,-0.283464 0,-0.05669 0.0189,-0.340158 0.0189,-0.396851 v -0.944882 h -1.83307 c 0.0945,0.680315 0.13228,1.190551 0.13228,2.229922 v 5.933858 c 0,0.944882 -0.0378,1.511811 -0.13228,2.229921 z m 16.063,-2.135433 v 2.135433 h 2.13543 V 73.45512 Z m 21.18426,-12.434646 c 0.11339,0.661417 0.15118,1.266142 0.15118,2.211024 v 3.892913 h -8.29606 v -3.930708 c 0,-0.925985 0.0378,-1.455119 0.15118,-2.173229 h -2.05984 c 0.11338,0.699213 0.15118,1.228347 0.15118,2.211024 V 73.37953 c 0,0.982677 -0.0378,1.568504 -0.15118,2.211023 h 2.05984 c -0.11338,-0.699212 -0.15118,-1.228346 -0.15118,-2.211023 v -4.648819 h 8.29606 v 4.648819 c 0,0.963779 -0.0378,1.511811 -0.15118,2.211023 h 2.05984 c -0.11338,-0.737008 -0.15118,-1.228346 -0.15118,-2.211023 V 63.193703 c 0,-0.944882 0.0378,-1.436221 0.15118,-2.173229 z m 9.5622,14.834646 c 3.11811,0 5.15905,-2.154331 5.15905,-5.480315 0,-3.325984 -2.02205,-5.44252 -5.19685,-5.44252 -3.1748,0 -5.19685,2.135433 -5.19685,5.461418 0,3.344882 2.02205,5.461417 5.23465,5.461417 z m 0,-9.505512 c 2.11653,0 3.42047,1.549606 3.42047,4.062992 0,2.494489 -1.30394,4.0063 -3.45827,4.0063 -2.13543,0 -3.45827,-1.549607 -3.45827,-4.044095 0,-2.494488 1.34174,-4.025197 3.49607,-4.025197 z m 13.6441,-1.152756 c -0.0567,0.359055 -0.20787,0.982677 -0.39685,1.530709 l -1.43622,4.270866 c -0.17008,0.529134 -0.43465,1.511811 -0.66142,2.475591 -0.17008,-0.925984 -0.37795,-1.851969 -0.56693,-2.551181 l -1.05827,-3.609449 c -0.24566,-0.812599 -0.37795,-1.530709 -0.43464,-2.116536 h -2.02205 c 0.22677,0.623622 0.52914,1.511811 0.77481,2.267717 l 2.04094,6.576378 c 0.26457,0.888189 0.32126,1.096063 0.41575,1.549606 h 1.5685 c 0.0756,-0.377952 0.24567,-0.963779 0.43465,-1.530708 l 1.71968,-5.177953 c 0.0567,-0.170079 0.22677,-0.737008 0.35906,-1.247244 0.22677,0.7937 0.30236,1.058267 0.34016,1.209448 l 1.73858,5.215749 c 0.18897,0.585826 0.34016,1.133858 0.41575,1.530708 h 1.5496 c 0.0756,-0.415748 0.17008,-0.71811 0.41575,-1.530708 l 2.05984,-6.595276 c 0.41575,-1.36063 0.56693,-1.776378 0.75591,-2.267717 h -2.02205 c -0.0378,0.566929 -0.17008,1.28504 -0.41575,2.116536 l -1.00157,3.420472 c -0.26457,0.96378 -0.37795,1.474016 -0.64252,2.759055 -0.22677,-1.11496 -0.37795,-1.738582 -0.56693,-2.286614 l -1.47402,-4.47874 c -0.18897,-0.548032 -0.35905,-1.190551 -0.39685,-1.530709 z m 25.66299,2.796851 c -0.20788,-0.548032 -0.37795,-0.869292 -0.66142,-1.266142 -0.83149,-1.190551 -2.15433,-1.814173 -3.79842,-1.814173 -3.00473,0 -4.97008,2.192126 -4.97008,5.51811 0,3.307087 1.98425,5.423622 5.04567,5.423622 1.6063,0 2.89134,-0.566929 3.74173,-1.68189 0.32126,-0.415748 0.51024,-0.774803 0.7748,-1.492913 l -1.68189,-0.415748 c -0.15118,0.472441 -0.24567,0.699213 -0.39685,0.944882 -0.49134,0.755905 -1.34173,1.171653 -2.3811,1.171653 -2.05984,0 -3.36378,-1.549606 -3.36378,-3.987401 0,-2.475591 1.26614,-4.044095 3.28819,-4.044095 1.34173,0 2.22992,0.680315 2.74016,2.116536 z m 9.07085,7.59685 h 1.79527 c -0.11338,-0.793701 -0.15118,-1.247244 -0.15118,-2.173228 v -5.253544 c 0,-1.03937 -0.24567,-1.75748 -0.8126,-2.286614 -0.68031,-0.661417 -1.71968,-0.982677 -3.1559,-0.982677 -1.45512,0 -2.60788,0.340157 -3.43937,1.03937 -0.54803,0.434646 -0.8315,0.869291 -1.17165,1.814173 l 1.75748,0.340158 c 0.17007,-0.510236 0.30236,-0.755906 0.54803,-1.020473 0.51023,-0.529133 1.26614,-0.7937 2.28661,-0.7937 1.6063,0 2.34331,0.604724 2.34331,1.889763 v 0.982678 c -2.45669,0.05669 -3.49606,0.188976 -4.62992,0.548031 -1.6252,0.529134 -2.55118,1.662992 -2.55118,3.11811 0,1.833071 1.30393,2.948032 3.42047,2.948032 0.73701,0 1.43622,-0.113386 2.07874,-0.359055 0.62362,-0.226772 0.96378,-0.453543 1.68189,-1.077165 z m 0,-4.025197 c 0,0.699213 -0.17008,1.152756 -0.62362,1.625197 -0.73701,0.755906 -1.87087,1.228347 -2.91024,1.228347 -1.19055,0 -1.92756,-0.623622 -1.92756,-1.6063 0,-0.869291 0.47244,-1.474015 1.41732,-1.851968 0.8315,-0.340158 1.88977,-0.472441 4.0441,-0.529134 z m 6.31182,4.025197 c -0.0945,-0.755905 -0.13229,-1.398425 -0.13229,-2.229921 v -3.703937 c 0.20788,-0.774803 0.45355,-1.228347 0.96378,-1.833071 0.77481,-0.925984 1.5874,-1.341732 2.57008,-1.341732 1.43622,0 2.17323,0.850393 2.17323,2.513386 v 4.365354 c 0,0.888189 -0.0378,1.43622 -0.13228,2.229921 h 1.98425 c -0.0945,-0.642519 -0.13229,-1.228346 -0.13229,-2.211023 v -4.648819 c 0,-1.001575 -0.18897,-1.738583 -0.56692,-2.32441 -0.62363,-0.907087 -1.70079,-1.398425 -3.08032,-1.398425 -1.68189,0 -2.87244,0.661417 -3.81732,2.116535 0.0378,-0.472441 0.0378,-0.566929 0.0378,-0.812598 v -1.114961 h -1.85197 c 0.11339,0.755906 0.15119,1.303937 0.15119,2.229922 v 5.933858 c 0,0.96378 -0.0378,1.474016 -0.15119,2.229921 z m 16.40318,-14.570079 c 0.11338,0.699213 0.15118,1.190551 0.15118,2.211024 V 73.37953 c 0,1.001574 -0.0378,1.492913 -0.15118,2.211023 h 2.09764 c -0.11339,-0.661417 -0.15119,-1.303937 -0.15119,-2.211023 V 63.231498 c 0,-0.888189 0.0378,-1.530709 0.15119,-2.211024 z m 13.07716,14.570079 c -0.0945,-0.755905 -0.13229,-1.398425 -0.13229,-2.229921 v -3.68504 c 0.22677,-0.7937 0.49134,-1.285039 1.00158,-1.889763 0.71811,-0.850394 1.5685,-1.28504 2.53228,-1.28504 0.68032,0 1.24724,0.226772 1.6252,0.64252 0.35905,0.39685 0.54803,1.001575 0.54803,1.833071 v 4.384252 c 0,0.982677 -0.0378,1.568504 -0.15118,2.229921 h 2.00315 c -0.0945,-0.680315 -0.13229,-1.322834 -0.13229,-2.211023 v -4.762205 c 0,-2.267717 -1.34173,-3.609449 -3.60944,-3.609449 -1.71969,0 -2.94804,0.699212 -3.87402,2.154331 0.0378,-0.56693 0.0567,-0.623622 0.0567,-0.925985 v -2.966929 c 0,-1.001575 0.0189,-1.530709 0.13229,-2.248819 h -1.96536 c 0.11339,0.71811 0.15118,1.247244 0.15118,2.229921 v 10.110237 c 0,0.982677 -0.0378,1.492913 -0.15118,2.229921 z m 19.25667,-4.87559 c -0.0567,-0.944882 -0.0945,-1.341733 -0.13228,-1.530709 -0.37795,-2.645669 -2.17323,-4.251969 -4.72441,-4.251969 -2.94803,0 -4.87559,2.154331 -4.87559,5.461418 0,3.363779 1.94646,5.480315 5.00787,5.480315 1.45512,0 2.66457,-0.472441 3.57166,-1.379528 0.45354,-0.434645 0.69921,-0.812598 1.05826,-1.606299 l -1.5874,-0.585827 c -0.18897,0.548032 -0.32126,0.793701 -0.60472,1.096063 -0.58583,0.680315 -1.41732,1.03937 -2.4189,1.03937 -1.09606,0 -1.98425,-0.415748 -2.57008,-1.209449 -0.49134,-0.661417 -0.68031,-1.285039 -0.7559,-2.513385 z m -7.9748,-1.379528 c 0.11339,-0.680315 0.20787,-0.982677 0.47244,-1.436221 0.56693,-1.001574 1.49291,-1.549606 2.60787,-1.549606 0.88819,0 1.6063,0.264567 2.17323,0.812599 0.54803,0.548031 0.8315,1.190551 0.94488,2.173228 z m 10.09133,-8.314961 c 0.0945,0.680315 0.13229,1.228347 0.13229,2.229921 v 10.110237 c 0,0.96378 -0.0378,1.492913 -0.13229,2.229921 h 2.00315 c -0.0945,-0.774803 -0.13228,-1.322834 -0.13228,-2.229921 V 63.250395 c 0,-0.982677 0.0378,-1.530708 0.13228,-2.229921 z m 6.53859,18.444095 c -0.0945,-0.699212 -0.13228,-1.285039 -0.13228,-2.248819 v -2.003149 c 0,-0.510237 -0.0189,-0.793701 -0.0567,-1.303938 0.96378,1.228347 2.22992,1.833071 3.87401,1.833071 2.91024,0 4.7811,-2.097637 4.7811,-5.385827 0,-3.344882 -1.81417,-5.366929 -4.81889,-5.366929 -1.68189,0 -2.92914,0.623622 -3.83622,1.908662 0.0378,-0.396851 0.0378,-0.510237 0.0378,-0.737008 v -0.96378 h -1.79527 c 0.0945,0.71811 0.13228,1.303937 0.13228,2.267717 v 9.770079 c 0,0.850394 -0.0378,1.474016 -0.13228,2.229921 z m 3.45827,-5.177953 c -0.94488,0 -1.90866,-0.377953 -2.51339,-1.001575 -0.66141,-0.661417 -1.05826,-1.75748 -1.05826,-2.910236 0,-2.305512 1.45512,-3.911811 3.59055,-3.911811 2.05984,0 3.23149,1.417323 3.23149,3.892913 0,2.456693 -1.22834,3.930709 -3.25039,3.930709 z m 16.85669,0.850394 -0.8126,1.889764 c -0.28346,0.661417 -0.7559,1.020472 -1.37953,1.020472 -0.37795,0 -0.69921,-0.09449 -1.22834,-0.340157 l -0.41575,1.644094 c 0.73701,0.151181 1.20945,0.207874 1.66299,0.207874 1.45512,0 2.36221,-0.585826 2.89134,-1.851968 l 4.25197,-10.261418 c 0.52913,-1.247244 0.85039,-2.003149 0.94488,-2.248819 h -2.04094 c -0.0945,0.548032 -0.24567,1.03937 -0.64252,2.07874 l -2.34331,6.047245 -2.62677,-6.066142 c -0.32126,-0.737008 -0.56693,-1.530709 -0.66142,-2.059843 h -2.13543 c 0.20787,0.396851 0.20787,0.396851 1.05827,2.248819 z m 12.18896,0.71811 c 3.11811,0 5.15906,-2.154331 5.15906,-5.480315 0,-3.325984 -2.02205,-5.44252 -5.19685,-5.44252 -3.17481,0 -5.19685,2.135433 -5.19685,5.461418 0,3.344882 2.02204,5.461417 5.23464,5.461417 z m 0,-9.505512 c 2.11654,0 3.42047,1.549606 3.42047,4.062992 0,2.494489 -1.30393,4.0063 -3.45826,4.0063 -2.13544,0 -3.45827,-1.549607 -3.45827,-4.044095 0,-2.494488 1.34173,-4.025197 3.49606,-4.025197 z m 14.68348,-1.152756 c 0.0945,0.755906 0.13228,1.398425 0.13228,2.229922 v 3.703937 c -0.20787,0.774803 -0.45354,1.228346 -0.96378,1.833071 -0.7748,0.925984 -1.5874,1.341732 -2.57008,1.341732 -1.43622,0 -2.17323,-0.850394 -2.17323,-2.513386 v -4.365354 c 0,-0.888189 0.0378,-1.436221 0.13229,-2.229922 h -1.98426 c 0.0945,0.64252 0.13229,1.228347 0.13229,2.211024 v 4.648819 c 0,1.001575 0.18897,1.738583 0.56693,2.305512 0.62362,0.907086 1.70078,1.398425 3.08031,1.398425 1.66299,0 2.87244,-0.661417 3.81732,-2.097638 -0.0378,0.472441 -0.0378,0.566929 -0.0378,0.812599 v 1.11496 h 1.85197 c -0.11339,-0.755905 -0.15118,-1.303937 -0.15118,-2.229921 v -5.933858 c 0,-0.96378 0.0378,-1.474016 0.15118,-2.229922 z m 12.09449,-2.834646 c 0.0756,0.64252 0.13228,1.398426 0.13228,2.154331 v 0.680315 h -0.73701 c -0.7937,0 -1.17165,-0.0189 -1.70079,-0.113386 v 1.662993 c 0.60473,-0.07559 1.02048,-0.113386 1.68189,-0.113386 h 0.75591 v 6.633071 c 0,0.963779 0.17008,1.530708 0.58583,1.927559 0.41574,0.377953 1.09606,0.585827 2.00315,0.585827 0.7937,0 1.39842,-0.113386 2.19212,-0.434646 l -0.41575,-1.530709 c -0.58582,0.340158 -0.96378,0.453544 -1.47401,0.453544 -0.39685,0 -0.71811,-0.113386 -0.90709,-0.283465 -0.18898,-0.188976 -0.26457,-0.453543 -0.26457,-1.001575 v -6.349606 h 0.88819 c 0.86929,0 1.30394,0.0189 1.90866,0.113386 v -1.662993 c -0.62362,0.09449 -1.03937,0.113386 -1.92755,0.113386 h -0.8693 v -0.680315 c 0,-0.812598 0.0567,-1.549606 0.13229,-2.154331 z m 11.20632,13.492914 c 3.11811,0 5.15905,-2.154331 5.15905,-5.480315 0,-3.325984 -2.02205,-5.44252 -5.19685,-5.44252 -3.1748,0 -5.19685,2.135433 -5.19685,5.461418 0,3.344882 2.02205,5.461417 5.23465,5.461417 z m 0,-9.505512 c 2.11653,0 3.42047,1.549606 3.42047,4.062992 0,2.494489 -1.30394,4.0063 -3.45827,4.0063 -2.13543,0 -3.45827,-1.549607 -3.45827,-4.044095 0,-2.494488 1.34173,-4.025197 3.49607,-4.025197 z m 15.40158,9.240945 h 1.81417 c -0.0945,-0.737008 -0.13228,-1.303937 -0.13228,-2.286614 V 63.269293 c 0,-0.869291 0.0378,-1.455118 0.13228,-2.248819 h -1.94645 c 0.0945,0.71811 0.13228,1.322835 0.13228,2.248819 v 2.286614 c 0,0.302363 0,0.604725 0.0189,0.737008 0.0189,0.32126 0.0189,0.32126 0.0378,0.529134 -0.85039,-1.209449 -2.17323,-1.851968 -3.85512,-1.851968 -2.92913,0 -4.7811,2.097637 -4.7811,5.404724 0,1.75748 0.52914,3.231496 1.51181,4.214173 0.8126,0.793701 1.92756,1.190552 3.30709,1.190552 1.68189,0 2.85354,-0.566929 3.81732,-1.851969 -0.0189,0.245669 -0.0567,0.585827 -0.0567,0.812599 z m -3.59055,-9.146457 c 1.00157,0 1.90866,0.359055 2.57008,1.020473 0.64252,0.623622 1.00157,1.662992 1.00157,2.853543 0,2.418898 -1.39842,4.0063 -3.55275,4.0063 -0.79371,0 -1.53071,-0.24567 -2.07874,-0.718111 -0.73701,-0.642519 -1.15276,-1.795275 -1.15276,-3.288189 0,-2.4 1.20945,-3.874016 3.2126,-3.874016 z m 14.87245,9.146457 h 1.79528 c -0.11339,-0.793701 -0.15119,-1.247244 -0.15119,-2.173228 v -5.253544 c 0,-1.03937 -0.24567,-1.75748 -0.81259,-2.286614 -0.68032,-0.661417 -1.71969,-0.982677 -3.15591,-0.982677 -1.45512,0 -2.60787,0.340157 -3.43937,1.03937 -0.54803,0.434646 -0.8315,0.869291 -1.17165,1.814173 l 1.75748,0.340158 c 0.17008,-0.510236 0.30236,-0.755906 0.54803,-1.020473 0.51023,-0.529133 1.26614,-0.7937 2.28661,-0.7937 1.6063,0 2.34331,0.604724 2.34331,1.889763 v 0.982678 c -2.45669,0.05669 -3.49606,0.188976 -4.62992,0.548031 -1.6252,0.529134 -2.55118,1.662992 -2.55118,3.11811 0,1.833071 1.30393,2.948032 3.42047,2.948032 0.73701,0 1.43622,-0.113386 2.07874,-0.359055 0.62362,-0.226772 0.96378,-0.453543 1.68189,-1.077165 z m 0,-4.025197 c 0,0.699213 -0.17008,1.152756 -0.62362,1.625197 -0.73701,0.755906 -1.87087,1.228347 -2.91024,1.228347 -1.19055,0 -1.92756,-0.623622 -1.92756,-1.6063 0,-0.869291 0.47244,-1.474015 1.41732,-1.851968 0.8315,-0.340158 1.88977,-0.472441 4.0441,-0.529134 z m 7.74807,3.571654 -0.8126,1.889764 c -0.28346,0.661417 -0.75591,1.020472 -1.37953,1.020472 -0.37795,0 -0.69921,-0.09449 -1.22834,-0.340157 l -0.41575,1.644094 c 0.73701,0.151181 1.20945,0.207874 1.66299,0.207874 1.45512,0 2.3622,-0.585826 2.89134,-1.851968 l 4.25197,-10.261418 c 0.52913,-1.247244 0.85039,-2.003149 0.94488,-2.248819 h -2.04095 c -0.0945,0.548032 -0.24567,1.03937 -0.64252,2.07874 l -2.3433,6.047245 -2.62677,-6.066142 c -0.32126,-0.737008 -0.56693,-1.530709 -0.66142,-2.059843 h -2.13543 c 0.20787,0.396851 0.20787,0.396851 1.05826,2.248819 z m 12.22675,-3.288189 c -0.0567,-0.415748 -0.0756,-0.699213 -0.0756,-0.982677 0,-0.737008 0.15119,-1.247244 0.47245,-1.68189 0.26456,-0.377953 0.51023,-0.566929 1.71968,-1.417323 1.02047,-0.71811 1.39843,-1.096063 1.73858,-1.68189 0.30237,-0.529134 0.43465,-1.11496 0.43465,-1.833071 0,-0.982677 -0.47244,-1.889764 -1.30394,-2.551181 -0.86929,-0.680315 -1.96535,-1.020472 -3.36378,-1.020472 -1.5874,0 -2.83464,0.39685 -3.74173,1.190551 -0.7748,0.661417 -1.15276,1.341732 -1.53071,2.702362 l 1.90866,0.264567 c 0.17008,-0.755905 0.32126,-1.096063 0.64252,-1.511811 0.56693,-0.737008 1.49292,-1.133858 2.66457,-1.133858 1.71968,0 2.87244,0.907086 2.87244,2.248819 0,0.510236 -0.22677,1.03937 -0.60472,1.43622 -0.28347,0.302362 -0.62363,0.585827 -1.26615,1.020473 -1.17165,0.7937 -1.30393,0.907086 -1.68189,1.417323 -0.52913,0.680315 -0.71811,1.303937 -0.71811,2.343307 0,0.566929 0,0.699212 -0.0567,1.190551 z m -1.98425,1.738583 v 2.003149 h 2.07874 v -2.003149 z"
     id="text1"
     style="font-size:18.8976px;font-family:'Hiragino Sans'"
     aria-label="I'm just a computer program. How can I help you today?" />
</svg>
