<?xml version="1.0" encoding="UTF-8" standalone="no"?>
<svg
   version="1.1"
   height="297mm"
   width="210mm"
   id="svg1"
   sodipodi:docname="txt.svg"
   xmlns:inkscape="http://www.inkscape.org/namespaces/inkscape"
   xmlns:sodipodi="http://sodipodi.sourceforge.net/DTD/sodipodi-0.dtd"
   xmlns="http://www.w3.org/2000/svg"
   xmlns:svg="http://www.w3.org/2000/svg">
  <defs
     id="defs1" />
  <sodipodi:namedview
     id="namedview1"
     pagecolor="#505050"
     bordercolor="#ffffff"
     borderopacity="1"
     inkscape:showpageshadow="0"
     inkscape:pageopacity="0"
     inkscape:pagecheckerboard="1"
     inkscape:deskcolor="#505050"
     inkscape:document-units="mm" />
  <path
     d="m 77.007876,61.020474 c 0.113386,0.699213 0.151181,1.190551 0.151181,2.211024 V 73.37953 c 0,1.001574 -0.0378,1.492913 -0.151181,2.211023 h 2.097638 C 78.992128,74.929136 78.954333,74.286616 78.954333,73.37953 V 63.231498 c 0,-0.888189 0.03779,-1.530709 0.151181,-2.211024 z m 6.954325,0 H 81.80787 v 2.135433 h 1.247244 c -0.0189,1.190551 -0.170078,1.474016 -1.077165,1.814174 l 0.566929,0.737007 c 1.114961,-0.566929 1.417323,-1.096063 1.417323,-2.551181 z m 4.55433,14.570079 c -0.09449,-0.774803 -0.132283,-1.303937 -0.132283,-2.229921 v -3.722835 c 0,-0.377953 0.340158,-1.322834 0.661417,-1.795275 0.585827,-0.850394 1.474016,-1.379528 2.32441,-1.379528 1.341732,0 2.040945,0.850394 2.040945,2.494488 v 4.40315 c 0,0.982677 -0.03779,1.549606 -0.132284,2.229921 h 1.984252 C 95.1685,74.910238 95.130705,74.362207 95.130705,73.37953 v -3.741733 c 0,-0.472441 0.32126,-1.379527 0.661417,-1.870866 0.566929,-0.831496 1.398425,-1.303937 2.286614,-1.303937 0.529134,0 0.96378,0.113386 1.28504,0.340157 0.566929,0.396851 0.774804,1.001575 0.774804,2.154331 v 4.40315 c 0,1.03937 -0.0189,1.474016 -0.13228,2.229921 h 1.98425 c -0.0945,-0.680315 -0.13229,-1.228346 -0.13229,-2.211023 v -4.686615 c 0,-1.171653 -0.20787,-1.946456 -0.71811,-2.570079 -0.58582,-0.755905 -1.530705,-1.133858 -2.777949,-1.133858 -1.606299,0 -2.626772,0.566929 -3.571654,1.965355 -0.188976,-0.529134 -0.302362,-0.755906 -0.585826,-1.039371 -0.56693,-0.623622 -1.379528,-0.925984 -2.456693,-0.925984 -1.511811,0 -2.72126,0.64252 -3.401575,1.833071 0,-0.113386 0,-0.113386 0.0189,-0.283464 0,-0.05669 0.0189,-0.340158 0.0189,-0.396851 v -0.944882 h -1.833071 c 0.09449,0.680315 0.132284,1.190551 0.132284,2.229922 v 5.933858 c 0,0.944882 -0.0378,1.511811 -0.132284,2.229921 z m 30.463009,0 h 1.81417 c -0.0945,-0.737008 -0.13228,-1.303937 -0.13228,-2.286614 V 63.269293 c 0,-0.869291 0.0378,-1.455118 0.13228,-2.248819 h -1.94645 c 0.0945,0.71811 0.13228,1.322835 0.13228,2.248819 v 2.286614 c 0,0.302363 0,0.604725 0.0189,0.737008 0.0189,0.32126 0.0189,0.32126 0.0378,0.529134 -0.85039,-1.209449 -2.17323,-1.851968 -3.85512,-1.851968 -2.92913,0 -4.7811,2.097637 -4.7811,5.404724 0,1.75748 0.52914,3.231496 1.51181,4.214173 0.8126,0.793701 1.92756,1.190552 3.30709,1.190552 1.68189,0 2.85354,-0.566929 3.81732,-1.851969 -0.0189,0.245669 -0.0567,0.585827 -0.0567,0.812599 z m -3.59055,-9.146457 c 1.00157,0 1.90866,0.359055 2.57008,1.020473 0.64252,0.623622 1.00157,1.662992 1.00157,2.853543 0,2.418898 -1.39842,4.0063 -3.55275,4.0063 -0.7937,0 -1.53071,-0.24567 -2.07874,-0.718111 -0.73701,-0.642519 -1.15276,-1.795275 -1.15276,-3.288189 0,-2.4 1.20945,-3.874016 3.2126,-3.874016 z m 12.7748,9.411024 c 3.11811,0 5.15906,-2.154331 5.15906,-5.480315 0,-3.325984 -2.02205,-5.44252 -5.19685,-5.44252 -3.1748,0 -5.19685,2.135433 -5.19685,5.461418 0,3.344882 2.02205,5.461417 5.23464,5.461417 z m 0,-9.505512 c 2.11654,0 3.42048,1.549606 3.42048,4.062992 0,2.494489 -1.30394,4.0063 -3.45827,4.0063 -2.13543,0 -3.45827,-1.549607 -3.45827,-4.044095 0,-2.494488 1.34173,-4.025197 3.49606,-4.025197 z m 7.2945,-5.329134 v 1.889764 h 2.09764 v -1.889764 z m 0.0378,4.176378 c 0.0945,0.661418 0.13228,1.28504 0.13228,2.229922 v 5.933858 c 0,0.869291 -0.0378,1.398425 -0.13228,2.229921 h 2.00315 c -0.0945,-0.793701 -0.13229,-1.322834 -0.13229,-2.229921 v -5.914961 c 0,-1.020472 0.0378,-1.568504 0.13229,-2.248819 z m 6.63305,10.393701 c -0.0945,-0.755905 -0.13228,-1.398425 -0.13228,-2.229921 v -3.703937 c 0.20787,-0.774803 0.45354,-1.228347 0.96378,-1.833071 0.7748,-0.925984 1.5874,-1.341732 2.57008,-1.341732 1.43622,0 2.17323,0.850393 2.17323,2.513386 v 4.365354 c 0,0.888189 -0.0378,1.43622 -0.13229,2.229921 h 1.98425 c -0.0945,-0.642519 -0.13228,-1.228346 -0.13228,-2.211023 v -4.648819 c 0,-1.001575 -0.18898,-1.738583 -0.56693,-2.32441 -0.62362,-0.907087 -1.70079,-1.398425 -3.08031,-1.398425 -1.68189,0 -2.87244,0.661417 -3.81733,2.116535 0.0378,-0.472441 0.0378,-0.566929 0.0378,-0.812598 v -1.114961 h -1.85197 c 0.11339,0.755906 0.15118,1.303937 0.15118,2.229922 v 5.933858 c 0,0.96378 -0.0378,1.474016 -0.15118,2.229921 z m 9.92127,2.00315 c 1.24725,1.379528 2.49449,1.908661 4.44095,1.908661 1.73858,0 3.23149,-0.510236 4.04409,-1.379527 0.8504,-0.888189 1.20945,-2.097638 1.20945,-4.100788 v -6.633071 c 0,-0.925984 0.0378,-1.417323 0.13229,-2.192126 h -1.77638 v 0.96378 c 0,0.207874 0,0.340157 0.0378,0.642519 -0.7937,-1.171653 -2.00315,-1.776378 -3.59055,-1.776378 -2.98583,0 -4.87559,2.059843 -4.87559,5.272442 0,3.1937 1.85197,5.215748 4.7811,5.215748 1.11496,0 2.13544,-0.32126 2.87244,-0.888189 0.32126,-0.264567 0.51024,-0.491339 0.8126,-0.982677 -0.0378,1.247244 -0.17008,2.059842 -0.37795,2.588976 -0.49134,1.209449 -1.64409,1.870866 -3.2315,1.870866 -1.32283,0 -2.26771,-0.453543 -3.06141,-1.492913 z m 1.37953,-7.256693 c 0,-2.4 1.24725,-3.892914 3.26929,-3.892914 2.02205,0 3.36378,1.492914 3.36378,3.741733 0,2.343307 -1.41732,3.930708 -3.47716,3.930708 -1.94646,0 -3.15591,-1.455118 -3.15591,-3.779527 z m 23.67875,-5.140158 c -0.0567,0.359055 -0.20787,0.982677 -0.39685,1.530709 l -1.43622,4.270866 c -0.17008,0.529134 -0.43465,1.511811 -0.66142,2.475591 -0.17008,-0.925984 -0.37795,-1.851969 -0.56693,-2.551181 l -1.05826,-3.609449 c -0.24567,-0.812599 -0.37796,-1.530709 -0.43465,-2.116536 h -2.02205 c 0.22677,0.623622 0.52914,1.511811 0.77481,2.267717 l 2.04094,6.576378 c 0.26457,0.888189 0.32126,1.096063 0.41575,1.549606 h 1.5685 c 0.0756,-0.377952 0.24567,-0.963779 0.43465,-1.530708 l 1.71968,-5.177953 c 0.0567,-0.170079 0.22677,-0.737008 0.35906,-1.247244 0.22677,0.7937 0.30236,1.058267 0.34016,1.209448 l 1.73858,5.215749 c 0.18897,0.585826 0.34016,1.133858 0.41575,1.530708 h 1.5496 c 0.0756,-0.415748 0.17008,-0.71811 0.41575,-1.530708 l 2.05984,-6.595276 c 0.41575,-1.36063 0.56693,-1.776378 0.75591,-2.267717 h -2.02205 c -0.0378,0.566929 -0.17008,1.28504 -0.41575,2.116536 l -1.00157,3.420472 c -0.26457,0.96378 -0.37795,1.474016 -0.64252,2.759055 -0.22677,-1.11496 -0.37795,-1.738582 -0.56693,-2.286614 l -1.47402,-4.47874 c -0.18897,-0.548032 -0.35905,-1.190551 -0.39685,-1.530709 z m 19.67242,5.518111 c -0.0567,-0.944882 -0.0945,-1.341733 -0.13228,-1.530709 -0.37796,-2.645669 -2.17323,-4.251969 -4.72441,-4.251969 -2.94803,0 -4.87559,2.154331 -4.87559,5.461418 0,3.363779 1.94645,5.480315 5.00787,5.480315 1.45512,0 2.66457,-0.472441 3.57165,-1.379528 0.45355,-0.434645 0.69922,-0.812598 1.05827,-1.606299 l -1.5874,-0.585827 c -0.18898,0.548032 -0.32126,0.793701 -0.60472,1.096063 -0.58583,0.680315 -1.41733,1.03937 -2.4189,1.03937 -1.09606,0 -1.98425,-0.415748 -2.57008,-1.209449 -0.49134,-0.661417 -0.68031,-1.285039 -0.75591,-2.513385 z m -7.9748,-1.379528 c 0.11338,-0.680315 0.20787,-0.982677 0.47244,-1.436221 0.56693,-1.001574 1.49291,-1.549606 2.60787,-1.549606 0.88819,0 1.6063,0.264567 2.17323,0.812599 0.54803,0.548031 0.8315,1.190551 0.94488,2.173228 z m 10.09132,-8.314961 c 0.0945,0.680315 0.13229,1.228347 0.13229,2.229921 v 10.110237 c 0,0.96378 -0.0378,1.492913 -0.13229,2.229921 h 2.00315 C 200.8063,74.81575 200.7685,74.267719 200.7685,73.360632 V 63.250395 c 0,-0.982677 0.0378,-1.530708 0.13228,-2.229921 z m 4.59213,0 c 0.0945,0.680315 0.13228,1.228347 0.13228,2.229921 v 10.110237 c 0,0.96378 -0.0378,1.492913 -0.13228,2.229921 h 2.00315 c -0.0945,-0.774803 -0.13229,-1.322834 -0.13229,-2.229921 V 63.250395 c 0,-0.982677 0.0378,-1.530708 0.13229,-2.229921 z m 6.72756,12.434646 h -2.15433 v 2.135433 h 1.24724 c -0.0189,1.190551 -0.17008,1.474016 -1.07717,1.814174 l 0.56693,0.737007 c 1.11496,-0.566929 1.41733,-1.096063 1.41733,-2.551181 z m 10.09135,-11.092914 c 0.0756,0.64252 0.13228,1.398426 0.13228,2.154331 v 0.680315 h -0.73701 c -0.7937,0 -1.17165,-0.0189 -1.70079,-0.113386 v 1.662993 c 0.60473,-0.07559 1.02048,-0.113386 1.68189,-0.113386 h 0.75591 v 6.633071 c 0,0.963779 0.17008,1.530708 0.58583,1.927559 0.41574,0.377953 1.09606,0.585827 2.00315,0.585827 0.7937,0 1.39842,-0.113386 2.19212,-0.434646 l -0.41575,-1.530709 c -0.58582,0.340158 -0.96378,0.453544 -1.47401,0.453544 -0.39685,0 -0.71811,-0.113386 -0.90709,-0.283465 -0.18897,-0.188976 -0.26457,-0.453543 -0.26457,-1.001575 v -6.349606 h 0.88819 c 0.8693,0 1.30394,0.0189 1.90867,0.113386 v -1.662993 c -0.62363,0.09449 -1.03937,0.113386 -1.92756,0.113386 h -0.8693 v -0.680315 c 0,-0.812598 0.0567,-1.549606 0.13229,-2.154331 z m 8.40945,13.228347 c -0.0945,-0.755905 -0.13228,-1.398425 -0.13228,-2.229921 v -3.68504 c 0.22677,-0.7937 0.49134,-1.285039 1.00157,-1.889763 0.71811,-0.850394 1.56851,-1.28504 2.53229,-1.28504 0.68031,0 1.24724,0.226772 1.62519,0.64252 0.35906,0.39685 0.54803,1.001575 0.54803,1.833071 v 4.384252 c 0,0.982677 -0.0378,1.568504 -0.15118,2.229921 h 2.00315 c -0.0945,-0.680315 -0.13228,-1.322834 -0.13228,-2.211023 v -4.762205 c 0,-2.267717 -1.34173,-3.609449 -3.60945,-3.609449 -1.71968,0 -2.94803,0.699212 -3.87402,2.154331 0.0378,-0.56693 0.0567,-0.623622 0.0567,-0.925985 v -2.966929 c 0,-1.001575 0.0189,-1.530709 0.13228,-2.248819 h -1.96535 c 0.11338,0.71811 0.15118,1.247244 0.15118,2.229921 v 10.110237 c 0,0.982677 -0.0378,1.492913 -0.15118,2.229921 z m 16.85669,0 h 1.79528 c -0.11339,-0.793701 -0.15118,-1.247244 -0.15118,-2.173228 v -5.253544 c 0,-1.03937 -0.24567,-1.75748 -0.8126,-2.286614 -0.68032,-0.661417 -1.71969,-0.982677 -3.15591,-0.982677 -1.45511,0 -2.60787,0.340157 -3.43937,1.03937 -0.54803,0.434646 -0.83149,0.869291 -1.17165,1.814173 l 1.75748,0.340158 c 0.17008,-0.510236 0.30236,-0.755906 0.54803,-1.020473 0.51024,-0.529133 1.26614,-0.7937 2.28662,-0.7937 1.6063,0 2.3433,0.604724 2.3433,1.889763 v 0.982678 c -2.45669,0.05669 -3.49606,0.188976 -4.62992,0.548031 -1.62519,0.529134 -2.55118,1.662992 -2.55118,3.11811 0,1.833071 1.30394,2.948032 3.42047,2.948032 0.73701,0 1.43622,-0.113386 2.07874,-0.359055 0.62363,-0.226772 0.96378,-0.453543 1.68189,-1.077165 z m 0,-4.025197 c 0,0.699213 -0.17008,1.152756 -0.62362,1.625197 -0.73701,0.755906 -1.87086,1.228347 -2.91023,1.228347 -1.19056,0 -1.92756,-0.623622 -1.92756,-1.6063 0,-0.869291 0.47244,-1.474015 1.41732,-1.851968 0.83149,-0.340158 1.88976,-0.472441 4.04409,-0.529134 z m 6.31182,4.025197 c -0.0945,-0.755905 -0.13228,-1.398425 -0.13228,-2.229921 v -3.703937 c 0.20787,-0.774803 0.45354,-1.228347 0.96378,-1.833071 0.7748,-0.925984 1.5874,-1.341732 2.57008,-1.341732 1.43622,0 2.17322,0.850393 2.17322,2.513386 v 4.365354 c 0,0.888189 -0.0378,1.43622 -0.13228,2.229921 h 1.98425 c -0.0945,-0.642519 -0.13228,-1.228346 -0.13228,-2.211023 v -4.648819 c 0,-1.001575 -0.18898,-1.738583 -0.56693,-2.32441 -0.62362,-0.907087 -1.70079,-1.398425 -3.08031,-1.398425 -1.68189,0 -2.87245,0.661417 -3.81733,2.116535 0.0378,-0.472441 0.0378,-0.566929 0.0378,-0.812598 v -1.114961 h -1.85197 c 0.11338,0.755906 0.15118,1.303937 0.15118,2.229922 v 5.933858 c 0,0.96378 -0.0378,1.474016 -0.15118,2.229921 z m 9.99687,-14.570079 c 0.0945,0.699213 0.13229,1.228347 0.13229,2.229921 v 10.110237 c 0,0.96378 -0.0378,1.568504 -0.13229,2.229921 h 1.94646 c -0.0945,-0.661417 -0.13228,-1.303937 -0.13228,-2.192126 v -1.511811 l 1.6063,-1.511811 2.3622,3.325984 c 0.7937,1.096063 0.98268,1.398426 1.20945,1.889764 h 2.49449 c -0.43465,-0.434645 -0.51024,-0.529134 -1.66299,-2.040945 l -3.1937,-4.195275 2.64566,-2.494489 c 0.0189,-0.0189 0.15119,-0.151181 0.34016,-0.321259 0.26457,-0.264567 0.49134,-0.472441 0.68032,-0.64252 0.51023,-0.453543 0.51023,-0.453543 0.7748,-0.699213 h -2.62677 c -0.26457,0.434646 -0.58583,0.774803 -1.37953,1.549607 l -3.25039,3.155905 v -6.651969 c 0,-1.001574 0.0378,-1.549606 0.13228,-2.229921 z m 20.9764,14.116536 -0.8126,1.889764 c -0.28346,0.661417 -0.7559,1.020472 -1.37953,1.020472 -0.37795,0 -0.69921,-0.09449 -1.22834,-0.340157 l -0.41575,1.644094 c 0.73701,0.151181 1.20945,0.207874 1.66299,0.207874 1.45512,0 2.36221,-0.585826 2.89134,-1.851968 l 4.25197,-10.261418 c 0.52913,-1.247244 0.85039,-2.003149 0.94488,-2.248819 h -2.04094 c -0.0945,0.548032 -0.24567,1.03937 -0.64252,2.07874 l -2.34331,6.047245 -2.62677,-6.066142 c -0.32126,-0.737008 -0.56693,-1.530709 -0.66142,-2.059843 h -2.13543 c 0.20787,0.396851 0.20787,0.396851 1.05826,2.248819 z m 12.18896,0.71811 c 3.11811,0 5.15906,-2.154331 5.15906,-5.480315 0,-3.325984 -2.02205,-5.44252 -5.19685,-5.44252 -3.17481,0 -5.19685,2.135433 -5.19685,5.461418 0,3.344882 2.02204,5.461417 5.23464,5.461417 z m 0,-9.505512 c 2.11654,0 3.42047,1.549606 3.42047,4.062992 0,2.494489 -1.30393,4.0063 -3.45826,4.0063 -2.13544,0 -3.45827,-1.549607 -3.45827,-4.044095 0,-2.494488 1.34173,-4.025197 3.49606,-4.025197 z m 14.68347,-1.152756 c 0.0945,0.755906 0.13229,1.398425 0.13229,2.229922 v 3.703937 c -0.20788,0.774803 -0.45355,1.228346 -0.96378,1.833071 -0.7748,0.925984 -1.5874,1.341732 -2.57008,1.341732 -1.43622,0 -2.17323,-0.850394 -2.17323,-2.513386 v -4.365354 c 0,-0.888189 0.0378,-1.436221 0.13228,-2.229922 h -1.98425 c 0.0945,0.64252 0.13229,1.228347 0.13229,2.211024 v 4.648819 c 0,1.001575 0.18897,1.738583 0.56693,2.305512 0.62362,0.907086 1.70078,1.398425 3.08031,1.398425 1.66299,0 2.87244,-0.661417 3.81732,-2.097638 -0.0378,0.472441 -0.0378,0.566929 -0.0378,0.812599 v 1.11496 h 1.85197 c -0.11339,-0.755905 -0.15118,-1.303937 -0.15118,-2.229921 v -5.933858 c 0,-0.96378 0.0378,-1.474016 0.15118,-2.229922 z m 7.12444,6.651969 c -0.0378,-0.415748 -0.0567,-0.831496 -0.0567,-1.058268 0,-0.07559 0,-0.151181 0,-0.283464 0.0189,-0.188977 0.0189,-0.415748 0.0378,-0.718111 l 0.18898,-6.633071 c 0.0189,-0.774803 0.0567,-1.417323 0.13228,-2.135433 h -2.21102 c 0.0756,0.699213 0.11338,1.322835 0.13228,2.135433 l 0.18897,6.633071 c 0,0.755906 0,0.755906 0,0.96378 0,0.434646 0,0.623622 -0.0378,1.096063 z m 0.24567,3.741732 v -2.003149 h -2.07874 v 2.003149 z m 19.72912,-14.570079 c 0.11339,0.661417 0.15118,1.266142 0.15118,2.211024 v 3.892913 h -8.29606 v -3.930708 c 0,-0.925985 0.0378,-1.455119 0.15118,-2.173229 h -2.05984 c 0.11338,0.699213 0.15118,1.228347 0.15118,2.211024 V 73.37953 c 0,0.982677 -0.0378,1.568504 -0.15118,2.211023 h 2.05984 c -0.11339,-0.699212 -0.15118,-1.228346 -0.15118,-2.211023 v -4.648819 h 8.29606 v 4.648819 c 0,0.963779 -0.0378,1.511811 -0.15118,2.211023 h 2.05984 c -0.11338,-0.737008 -0.15118,-1.228346 -0.15118,-2.211023 V 63.193703 c 0,-0.944882 0.0378,-1.436221 0.15118,-2.173229 z m 9.5622,14.834646 c 3.11811,0 5.15905,-2.154331 5.15905,-5.480315 0,-3.325984 -2.02205,-5.44252 -5.19685,-5.44252 -3.1748,0 -5.19685,2.135433 -5.19685,5.461418 0,3.344882 2.02205,5.461417 5.23465,5.461417 z m 0,-9.505512 c 2.11653,0 3.42047,1.549606 3.42047,4.062992 0,2.494489 -1.30394,4.0063 -3.45827,4.0063 -2.13543,0 -3.45827,-1.549607 -3.45827,-4.044095 0,-2.494488 1.34173,-4.025197 3.49607,-4.025197 z m 13.6441,-1.152756 c -0.0567,0.359055 -0.20788,0.982677 -0.39685,1.530709 l -1.43622,4.270866 c -0.17008,0.529134 -0.43465,1.511811 -0.66142,2.475591 -0.17008,-0.925984 -0.37795,-1.851969 -0.56693,-2.551181 l -1.05827,-3.609449 c -0.24567,-0.812599 -0.37795,-1.530709 -0.43464,-2.116536 h -2.02205 c 0.22677,0.623622 0.52913,1.511811 0.7748,2.267717 l 2.04095,6.576378 c 0.26457,0.888189 0.32126,1.096063 0.41575,1.549606 h 1.5685 c 0.0756,-0.377952 0.24567,-0.963779 0.43465,-1.530708 l 1.71968,-5.177953 c 0.0567,-0.170079 0.22677,-0.737008 0.35906,-1.247244 0.22677,0.7937 0.30236,1.058267 0.34015,1.209448 l 1.73859,5.215749 c 0.18897,0.585826 0.34015,1.133858 0.41575,1.530708 h 1.5496 c 0.0756,-0.415748 0.17008,-0.71811 0.41575,-1.530708 l 2.05984,-6.595276 c 0.41575,-1.36063 0.56693,-1.776378 0.75591,-2.267717 h -2.02205 c -0.0378,0.566929 -0.17008,1.28504 -0.41575,2.116536 l -1.00157,3.420472 c -0.26457,0.96378 -0.37796,1.474016 -0.64252,2.759055 -0.22677,-1.11496 -0.37795,-1.738582 -0.56693,-2.286614 l -1.47402,-4.47874 c -0.18897,-0.548032 -0.35905,-1.190551 -0.39685,-1.530709 z m 23.56535,10.393701 h 1.79528 c -0.11339,-0.793701 -0.15119,-1.247244 -0.15119,-2.173228 v -5.253544 c 0,-1.03937 -0.24566,-1.75748 -0.81259,-2.286614 -0.68032,-0.661417 -1.71969,-0.982677 -3.15591,-0.982677 -1.45512,0 -2.60787,0.340157 -3.43937,1.03937 -0.54803,0.434646 -0.8315,0.869291 -1.17165,1.814173 l 1.75748,0.340158 c 0.17008,-0.510236 0.30236,-0.755906 0.54803,-1.020473 0.51023,-0.529133 1.26614,-0.7937 2.28661,-0.7937 1.6063,0 2.34331,0.604724 2.34331,1.889763 v 0.982678 c -2.45669,0.05669 -3.49606,0.188976 -4.62992,0.548031 -1.6252,0.529134 -2.55118,1.662992 -2.55118,3.11811 0,1.833071 1.30393,2.948032 3.42047,2.948032 0.73701,0 1.43622,-0.113386 2.07874,-0.359055 0.62362,-0.226772 0.96378,-0.453543 1.68189,-1.077165 z m 0,-4.025197 c 0,0.699213 -0.17008,1.152756 -0.62362,1.625197 -0.73701,0.755906 -1.87087,1.228347 -2.91024,1.228347 -1.19055,0 -1.92756,-0.623622 -1.92756,-1.6063 0,-0.869291 0.47244,-1.474015 1.41733,-1.851968 0.83149,-0.340158 1.88976,-0.472441 4.04409,-0.529134 z m 6.12284,4.025197 v -0.925984 c -0.0189,-0.39685 -0.0189,-0.39685 -0.0378,-0.566929 0,-0.0378 0,-0.09449 0,-0.151181 0.88819,1.228346 2.15433,1.833071 3.77952,1.833071 3.02363,0 4.8567,-2.059843 4.8567,-5.461418 0,-3.344882 -1.77638,-5.348031 -4.74331,-5.348031 -1.70079,0 -2.98583,0.642519 -3.89291,1.965354 0.0378,-0.434646 0.0567,-0.812599 0.0567,-1.341732 v -2.32441 c 0,-0.963779 0.0378,-1.530709 0.13228,-2.248819 h -1.94645 c 0.0945,0.793701 0.13228,1.398425 0.13228,2.248819 v 10.034646 c 0,0.982677 -0.0378,1.568504 -0.13228,2.286614 z m 6.84095,-5.272441 c 0,2.494488 -1.22835,4.0063 -3.26929,4.0063 -2.07875,0 -3.53386,-1.644095 -3.53386,-3.987402 0,-2.32441 1.47401,-3.911811 3.60945,-3.911811 2.02204,0 3.1937,1.43622 3.1937,3.892913 z m 8.65512,5.537008 c 3.11812,0 5.15906,-2.154331 5.15906,-5.480315 0,-3.325984 -2.02205,-5.44252 -5.19685,-5.44252 -3.1748,0 -5.19685,2.135433 -5.19685,5.461418 0,3.344882 2.02205,5.461417 5.23464,5.461417 z m 0,-9.505512 c 2.11654,0 3.42048,1.549606 3.42048,4.062992 0,2.494489 -1.30394,4.0063 -3.45827,4.0063 -2.13543,0 -3.45827,-1.549607 -3.45827,-4.044095 0,-2.494488 1.34173,-4.025197 3.49606,-4.025197 z m 14.68348,-1.152756 c 0.0945,0.755906 0.13228,1.398425 0.13228,2.229922 v 3.703937 c -0.20787,0.774803 -0.45354,1.228346 -0.96378,1.833071 -0.7748,0.925984 -1.5874,1.341732 -2.57008,1.341732 -1.43622,0 -2.17323,-0.850394 -2.17323,-2.513386 v -4.365354 c 0,-0.888189 0.0378,-1.436221 0.13229,-2.229922 h -1.98425 c 0.0945,0.64252 0.13228,1.228347 0.13228,2.211024 v 4.648819 c 0,1.001575 0.18898,1.738583 0.56693,2.305512 0.62362,0.907086 1.70079,1.398425 3.08031,1.398425 1.663,0 2.87245,-0.661417 3.81733,-2.097638 -0.0378,0.472441 -0.0378,0.566929 -0.0378,0.812599 v 1.11496 h 1.85197 c -0.11339,-0.755905 -0.15118,-1.303937 -0.15118,-2.229921 v -5.933858 c 0,-0.96378 0.0378,-1.474016 0.15118,-2.229922 z m 5.80158,-2.834646 c 0.0756,0.64252 0.13228,1.398426 0.13228,2.154331 v 0.680315 h -0.737 c -0.79371,0 -1.17166,-0.0189 -1.70079,-0.113386 v 1.662993 c 0.60472,-0.07559 1.02047,-0.113386 1.68189,-0.113386 h 0.7559 v 6.633071 c 0,0.963779 0.17008,1.530708 0.58583,1.927559 0.41575,0.377953 1.09606,0.585827 2.00315,0.585827 0.7937,0 1.39843,-0.113386 2.19213,-0.434646 l -0.41575,-1.530709 c -0.58583,0.340158 -0.96378,0.453544 -1.47402,0.453544 -0.39685,0 -0.71811,-0.113386 -0.90708,-0.283465 -0.18898,-0.188976 -0.26457,-0.453543 -0.26457,-1.001575 v -6.349606 h 0.88819 c 0.86929,0 1.30393,0.0189 1.90866,0.113386 v -1.662993 c -0.62362,0.09449 -1.03937,0.113386 -1.92756,0.113386 h -0.86929 v -0.680315 c 0,-0.812598 0.0567,-1.549606 0.13228,-2.154331 z m 16.1575,12.774804 -0.8126,1.889764 c -0.28347,0.661417 -0.75591,1.020472 -1.37953,1.020472 -0.37795,0 -0.69921,-0.09449 -1.22835,-0.340157 l -0.41574,1.644094 c 0.737,0.151181 1.20944,0.207874 1.66299,0.207874 1.45512,0 2.3622,-0.585826 2.89134,-1.851968 l 4.25196,-10.261418 c 0.52914,-1.247244 0.8504,-2.003149 0.94489,-2.248819 h -2.04095 c -0.0945,0.548032 -0.24567,1.03937 -0.64252,2.07874 l -2.34331,6.047245 -2.62677,-6.066142 c -0.32126,-0.737008 -0.56693,-1.530709 -0.66141,-2.059843 h -2.13544 c 0.20788,0.396851 0.20788,0.396851 1.05827,2.248819 z m 12.18899,0.71811 c 3.11811,0 5.15905,-2.154331 5.15905,-5.480315 0,-3.325984 -2.02204,-5.44252 -5.19685,-5.44252 -3.1748,0 -5.19685,2.135433 -5.19685,5.461418 0,3.344882 2.02205,5.461417 5.23465,5.461417 z m 0,-9.505512 c 2.11653,0 3.42047,1.549606 3.42047,4.062992 0,2.494489 -1.30394,4.0063 -3.45827,4.0063 -2.13543,0 -3.45827,-1.549607 -3.45827,-4.044095 0,-2.494488 1.34174,-4.025197 3.49607,-4.025197 z m 14.68347,-1.152756 c 0.0945,0.755906 0.13228,1.398425 0.13228,2.229922 v 3.703937 c -0.20787,0.774803 -0.45354,1.228346 -0.96377,1.833071 -0.77481,0.925984 -1.58741,1.341732 -2.57008,1.341732 -1.43622,0 -2.17323,-0.850394 -2.17323,-2.513386 v -4.365354 c 0,-0.888189 0.0378,-1.436221 0.13228,-2.229922 h -1.98425 c 0.0945,0.64252 0.13228,1.228347 0.13228,2.211024 v 4.648819 c 0,1.001575 0.18898,1.738583 0.56693,2.305512 0.62362,0.907086 1.70079,1.398425 3.08032,1.398425 1.66299,0 2.87244,-0.661417 3.81732,-2.097638 -0.0378,0.472441 -0.0378,0.566929 -0.0378,0.812599 v 1.11496 h 1.85197 c -0.11338,-0.755905 -0.15118,-1.303937 -0.15118,-2.229921 v -5.933858 c 0,-0.96378 0.0378,-1.474016 0.15118,-2.229922 z m 9.39213,6.651969 c -0.0567,-0.415748 -0.0756,-0.699213 -0.0756,-0.982677 0,-0.737008 0.15118,-1.247244 0.47244,-1.68189 0.26457,-0.377953 0.51024,-0.566929 1.71969,-1.417323 1.02047,-0.71811 1.39843,-1.096063 1.73858,-1.68189 0.30236,-0.529134 0.43465,-1.11496 0.43465,-1.833071 0,-0.982677 -0.47244,-1.889764 -1.30394,-2.551181 -0.86929,-0.680315 -1.96535,-1.020472 -3.36378,-1.020472 -1.5874,0 -2.83464,0.39685 -3.74173,1.190551 -0.7748,0.661417 -1.15276,1.341732 -1.53071,2.702362 l 1.90866,0.264567 c 0.17008,-0.755905 0.32126,-1.096063 0.64252,-1.511811 0.56693,-0.737008 1.49292,-1.133858 2.66457,-1.133858 1.71968,0 2.87244,0.907086 2.87244,2.248819 0,0.510236 -0.22677,1.03937 -0.60472,1.43622 -0.28347,0.302362 -0.62363,0.585827 -1.26615,1.020473 -1.17165,0.7937 -1.30393,0.907086 -1.68189,1.417323 -0.52913,0.680315 -0.71811,1.303937 -0.71811,2.343307 0,0.566929 0,0.699212 -0.0567,1.190551 z m -1.98425,1.738583 v 2.003149 h 2.07874 v -2.003149 z"
     id="text1"
     style="font-size:18.8976px;font-family:'Hiragino Sans'"
     aria-label="I’m doing well, thank you! How about you?" />
</svg>
